<svg width="266" height="239" viewBox="0 0 266 239" fill="none" xmlns="http://www.w3.org/2000/svg">
<path fill-rule="evenodd" clip-rule="evenodd" d="M225.732 44.6956L33.3128 53.3184L37.9738 157.329L139.381 152.785L40.8152 157.329L9.51807 238.964H254.188L227.325 148.844L230.393 148.706L225.732 44.6956Z" fill="#D9D9D9"/>
<path d="M58.1047 73.2483L211.674 65.4397V143.526L58.1047 151.334V73.2483Z" fill="#595959"/>
<path d="M34.2843 54.1561C33.5521 53.5052 34.0395 54.9144 34.083 55.3063C34.8297 62.0264 35.5135 68.7533 35.5784 75.5222C35.7909 97.6927 36.3272 119.751 37.6345 141.892C38.004 148.152 38.6737 154.384 39.0579 160.641C39.0928 161.21 38.7252 164.616 39.4605 164.984C43.1914 166.849 49.7939 165.984 53.7381 165.832C70.5113 165.187 87.2304 165.172 103.918 163.1C129.08 159.975 155.32 155.743 180.741 157.68C194.155 158.701 207.694 159.12 221.058 157.291C223.867 156.907 226.53 156.433 229.268 155.767C229.826 155.632 231.096 155.8 231.496 155.235C232.604 153.671 231.755 149.216 231.813 147.442C232.105 138.504 232.086 129.554 232.215 120.612C232.411 107.042 229.641 94.4948 227.499 81.2159C226.051 72.2367 225.668 63.6351 225.803 54.5874C225.82 53.4588 226.709 46.5903 225.113 46.3774C216.769 45.265 208.368 44.1879 199.893 44.4651C175.431 45.2653 151.157 45.712 126.679 45.2991C114.968 45.1015 103.393 44.4607 91.6823 45.0978C79.2425 45.7745 67.1794 47.5135 54.8452 49.0805C47.806 49.9749 41.2852 51.7508 34.4425 53.4803C33.9321 53.6093 29.317 54.0325 30.9198 54.6737" stroke="black" stroke-width="2" stroke-linecap="round"/>
<path d="M38.1664 164.667C38.1664 161.843 36.8353 165.22 36.556 166.163C34.2383 173.985 33.0948 181.849 29.6832 189.312C26.8705 195.464 24.5534 202.058 21.4301 208.032C18.596 213.453 15.4658 218.692 12.8032 224.208C11.2039 227.521 9.89851 230.947 7.39693 233.726C7.03918 234.124 6.36886 235.463 6.93683 235.983C8.67438 237.576 13.0629 237.004 15.0749 236.645C20.6124 235.657 26.0575 234.594 31.6674 234.028C51.1281 232.064 70.6809 232.641 90.1869 233.453C109.788 234.268 129.374 234.123 148.965 235.006C158.27 235.425 167.571 235.858 176.873 236.329C186.722 236.826 196.542 236.03 206.392 236.156C219.599 236.325 233.307 237.883 246.45 236.214C248.5 235.953 251.425 237.209 251.425 234.819C251.425 233.772 251.531 232.656 251.252 231.641C248.9 223.088 246.66 214.726 243.258 206.494C240.12 198.901 237.514 191.099 235.12 183.244C232.636 175.095 229.287 166.71 228.29 158.183C228.192 157.343 227.068 154.075 227.873 153.539" stroke="black" stroke-width="3" stroke-linecap="round"/>
<path d="M58.6123 71.7551C58.3452 72.3226 58.3178 72.8254 58.3679 73.4517C58.6691 77.2173 58.8331 80.7995 58.3391 84.5661C56.8881 95.6304 55.9974 107.31 56.4843 118.456C56.7967 125.605 56.8007 132.739 56.8007 139.894C56.8007 142.24 56.144 144.79 56.6856 147.112C57.2234 149.416 56.7725 150.617 59.6763 150.002C63.3095 149.232 66.7754 147.946 70.3737 147.126C76.085 145.824 82.3163 147.386 88.1165 147.27C102.33 146.983 116.162 146.631 130.331 145.156C146.436 143.48 163.178 142.696 179.361 143.359C184.791 143.581 189.573 143.44 194.918 142.525C198.521 141.908 202.246 141.418 205.903 141.375C207.484 141.356 210.703 141.738 211.77 140.138C212.431 139.146 212.378 137.504 212.488 136.385C212.83 132.943 213.112 129.496 213.38 126.047C214.482 111.842 213.946 97.9156 213.897 83.7178C213.886 80.4841 215.966 67.4582 210.562 67.3553C208.051 67.3075 205.654 66.9306 203.2 66.4063C195.324 64.7234 187.357 64.8502 179.347 65.3424C160.696 66.4881 142.396 71.1044 123.66 71.5681C117.112 71.7302 110.769 70.1045 104.249 69.7996C96.0666 69.4169 87.7964 69.1025 79.6046 69.167C73.6434 69.2139 67.8251 70.6759 61.8618 70.346C61.6033 70.3317 56.8283 70.2298 57.3183 70.7198" stroke="black" stroke-width="3" stroke-linecap="round"/>
<path d="M63.2708 223.676C62.4317 223.981 63.0452 223.942 63.6159 223.92C70.6933 223.653 77.7728 223.493 84.8526 223.302C97.6217 222.957 110.344 221.694 123.113 221.404C135.95 221.112 148.768 222.517 161.604 222.223C171.707 221.993 181.753 220.569 191.87 220.886C192.594 220.909 200.514 221.689 200.022 220.814C198.654 218.382 195.492 215.926 193.394 214.157C189.736 211.072 187.804 210.832 182.869 210.606C169.686 210.001 156.328 210.929 143.113 210.75C127.645 210.539 112.103 210.456 96.6428 210.994C91.4736 211.174 86.3972 211.922 81.2724 212.547C78.6217 212.87 76.079 214.252 73.6232 214.603C72.6394 214.744 71.3623 215.39 70.4312 215.768C67.9619 216.769 65.3477 218.233 63.846 220.512C63.2602 221.402 62.8419 222.023 61.9768 222.64" stroke="black" stroke-width="1.5" stroke-linecap="round"/>
<path d="M45.6718 169.843C44.3501 174.304 41.8824 178.244 40.4669 182.683C37.9959 190.433 35.8838 198.38 34.6006 206.422C34.3498 207.994 31.3415 213.757 33.0046 214.1C36.8937 214.9 40.9154 213.839 44.6941 212.978C50.3069 211.699 56.0015 211.02 61.6605 209.988C74.565 207.634 87.5448 206.091 100.582 204.668C109.792 203.662 118.881 201.84 128.117 200.901C133.42 200.361 138.67 199.571 143.962 198.974C145.024 198.854 147.914 199.442 148.361 198.082C149.047 195.997 148.678 193.353 148.678 191.21C148.678 186.569 148.664 181.93 148.807 177.291C148.908 174.015 149.929 169.588 149.138 166.335C148.355 163.115 137.311 164.409 135.22 164.409C116.061 164.409 96.9945 162.647 77.8216 164.035C69.1451 164.663 60.4461 164.661 51.797 165.717C50.79 165.84 45.8765 165.865 45.413 167.255" stroke="black" stroke-width="1.5" stroke-linecap="round"/>
<path d="M57.3182 166.479C57.2638 166.152 57.09 167.111 57.0738 167.442C56.7407 174.271 54.3855 181.29 52.9473 187.931C51.3943 195.103 49.8236 202.326 49.1226 209.643C49.0481 210.42 48.9358 211.889 48.9501 212.777C48.9725 214.167 49.2632 212.78 49.554 212.547" stroke="black" stroke-width="1.5" stroke-linecap="round"/>
<path d="M75.6937 166.22C75.4054 173.716 74.0687 181.406 73.1631 188.852C72.6174 193.338 72.0116 197.806 71.6103 202.31C71.4843 203.724 70.8354 206.912 71.5528 207.63" stroke="black" stroke-width="1.5" stroke-linecap="round"/>
<path d="M101.057 165.961C100.658 162.773 100.811 172.383 100.712 175.595C100.391 185.998 99.4753 196.446 99.4753 206.853C99.4753 209.219 99.6089 208.785 101.057 208.665" stroke="black" stroke-width="1.5" stroke-linecap="round"/>
<path d="M124.867 165.444C123.78 170.336 124.384 176.025 124.206 180.944C124.035 185.67 123.831 190.395 123.631 195.12C123.6 195.837 123.544 196.184 123.832 196.76" stroke="black" stroke-width="1.5" stroke-linecap="round"/>
<path d="M41.0133 181.231C40.5392 181.705 40.3267 181.974 41.229 182.137C47.9834 183.353 55.5557 183.182 62.3219 183.56C74.5404 184.243 86.7733 184.895 99.0152 184.682C111.707 184.461 124.35 183.01 137.031 182.813C141.049 182.75 145.969 182.214 148.419 185.89" stroke="black" stroke-width="1.5" stroke-linecap="round"/>
<path d="M37.39 197.795C42.8374 196.687 48.4421 196.218 53.9538 195.638C72.8008 193.654 91.6853 191.674 110.59 190.304C120.171 189.609 129.753 188.995 139.361 188.995" stroke="black" stroke-width="1.5" stroke-linecap="round"/>
<path d="M172.229 166.479C171.281 168.73 172.642 172.776 172.876 175.005C173.519 181.125 174.07 187.232 174.3 193.381C174.34 194.457 173.727 199.81 174.559 200.642C177.465 203.548 185.577 202.148 189.052 202.381C194.917 202.775 200.687 204.065 206.579 204.351C210.882 204.56 215.043 203.766 219.304 203.374C223.941 202.946 226.777 204.904 226.32 199.319C225.297 186.814 223.54 174.505 219.275 162.741C218.375 160.259 217.225 161.467 214.846 161.763C207.778 162.642 200.639 162.952 193.538 163.431C186.89 163.879 180.094 164.81 173.753 166.939C173.406 167.056 171.446 167.426 172.488 167.773" stroke="black" stroke-width="1.5" stroke-linecap="round"/>
<path d="M183.617 164.926C183.617 170.46 185.024 176.052 185.831 181.49C186.616 186.772 186.287 194.855 189.311 199.606" stroke="black" stroke-width="1.5" stroke-linecap="round"/>
<path d="M204.322 164.409C203.74 172.556 205.909 181.135 206.924 189.197C207.532 194.022 208.238 198.732 209.239 203.489" stroke="black" stroke-width="1.5" stroke-linecap="round"/>
<path d="M173.265 179.937C185.882 180.319 198.506 180.293 211.122 180.642C213.216 180.699 221.34 180.509 220.627 184.078" stroke="black" stroke-width="1.5" stroke-linecap="round"/>
<path d="M120.838 17.0874C121.377 18.3961 120.634 17.2934 120.492 16.4344C119.789 12.1734 119.455 7.64034 119.186 3.33617C119.041 1.00302 120.133 3.88006 120.3 4.41168C121.298 7.57947 120.838 11.2348 120.838 14.5138C120.838 20.36 120.586 11.7748 120.512 10.2886C120.362 7.29925 121.184 15.4245 121.184 16.7417" stroke="black" stroke-width="3" stroke-linecap="round"/>
<path d="M205.881 11.2105C205.881 14.4915 208.647 5.25461 210.221 2.37589C211.338 0.334305 208.853 4.47676 208.646 4.815C207.213 7.1642 205.64 9.49716 204.479 11.9979C203.197 14.7582 207.761 6.86557 209.587 4.43089C210.637 3.03143 208.234 7.68074 207.263 9.13626" stroke="black" stroke-width="3" stroke-linecap="round"/>
<path d="M47.8954 21.5815C48.1369 23.7551 39.123 11.5043 44.2847 17.5483C45.2277 18.6525 52.5851 25.5609 47.7801 21.9272C46.2526 20.772 42.1032 16.7912 43.4397 18.1629C44.564 19.3168 45.719 20.4422 46.8583 21.5815" stroke="black" stroke-width="3" stroke-linecap="round"/>
<path d="M13.6709 66.1769C16.6707 66.9268 7.53141 66.923 4.47147 67.3676C2.00056 67.7266 1.26701 67.994 4.02974 67.867C7.19534 67.7214 10.2862 67.2123 13.4021 66.6762C13.4199 66.6732 5.96078 67.4167 3.45357 67.6173C0.739644 67.8344 9.16158 69.4687 11.5967 68.2511" stroke="black" stroke-width="3" stroke-linecap="round"/>
<path d="M18.1651 112.846C17.8283 112.931 16.7532 114.498 16.3597 114.805C10.7097 119.22 19.4611 115.225 21.6221 113.653C23.0793 112.593 17.6065 113.988 16.5134 115.42C15.6558 116.544 16.0142 118.16 17.128 116.304" stroke="black" stroke-width="3" stroke-linecap="round"/>
<path d="M252.204 95.9071C248.921 96.5102 250.288 96.9775 252.819 97.6356C256.176 98.5084 259.585 99.1436 262.96 99.9403C266.491 100.774 261.717 100.37 260.962 100.075C259.719 99.5882 251.428 95.4975 252.934 96.6561C254.839 98.1212 261.163 101.409 259.464 99.7098" stroke="black" stroke-width="3" stroke-linecap="round"/>
<path d="M256.007 51.3117C256.007 51.3103 250.657 53.1417 251.551 51.9263C252.435 50.7251 263.262 43.3037 259.579 46.8945C258.725 47.7272 252.462 51.3798 254.432 51.0813C255.593 50.9055 258.475 48.9751 256.007 50.6203" stroke="black" stroke-width="3" stroke-linecap="round"/>
<path fill-rule="evenodd" clip-rule="evenodd" d="M161.011 95.3221C161.021 95.9745 160.978 96.6984 160.811 97.2334C160.702 97.5818 160.526 97.9984 160.315 98.3925C160.111 98.7725 159.82 99.2348 159.448 99.6005C159.156 99.8882 158.325 100.581 157.24 100.197C157.128 100.157 157.023 100.109 156.927 100.054C156.728 100.072 156.512 100.06 156.286 100.003C155.634 99.8382 155.225 99.3855 154.989 98.9914C154.755 98.6023 154.611 98.146 154.512 97.6824C154.334 96.8431 154.044 95.15 154.175 93.5677C154.24 92.7815 154.419 91.8787 154.885 91.1066C155.391 90.2685 156.218 89.6253 157.376 89.4864C158.641 89.3345 159.486 90.1222 159.93 90.8049C160.366 91.4756 160.618 92.3093 160.77 93.0512C160.926 93.8191 161.001 94.6227 161.011 95.3221ZM105.285 98.8376C105.322 99.6117 105.21 100.692 104.374 101.502C104.032 101.833 103.58 102.1 103.028 102.165C102.482 102.228 102.01 102.075 101.655 101.879C101.008 101.521 100.543 100.907 100.247 100.452C99.6599 99.5526 99.2143 98.4447 99.0532 98.044L99.0213 97.965C98.7852 97.3845 98.48 96.5454 98.4007 95.6915C98.3579 95.2315 98.3748 94.6635 98.5681 94.108C98.5642 93.9706 98.5636 93.8373 98.5665 93.7096C98.5741 93.3792 98.606 92.9203 98.7628 92.5166C98.9212 92.1085 99.2636 91.4735 100.002 91.1993C100.788 90.9078 101.462 91.2221 101.808 91.4499C101.939 91.5366 102.061 91.6345 102.174 91.7371C103.094 92.0074 103.656 92.8139 103.937 93.3113C104.177 93.7347 104.375 94.2161 104.533 94.7127C104.799 95.27 105.022 95.9128 105.167 96.5459C105.323 97.2239 105.423 98.0297 105.298 98.7631C105.294 98.7876 105.29 98.8124 105.285 98.8376ZM146.449 108.196C146.663 107.395 146.187 106.573 145.387 106.36C144.586 106.147 143.764 106.622 143.551 107.423C143.044 109.322 142.816 111.274 142.601 113.113L142.601 113.113C142.56 113.463 142.52 113.809 142.478 114.149C142.211 116.33 141.883 118.378 141.091 120.361C140.162 122.687 138.975 124.529 137.476 125.8C136.002 127.05 134.153 127.813 131.746 127.878C129.538 127.937 128.047 127.249 126.804 126.121C125.483 124.922 124.421 123.212 123.178 121.105C122.9 120.634 122.572 120.12 122.243 119.604L122.057 119.311C121.659 118.686 121.259 118.047 120.893 117.401C120.14 116.074 119.627 114.876 119.528 113.883C119.446 113.058 118.71 112.457 117.886 112.539C117.062 112.622 116.46 113.357 116.543 114.181C116.708 115.829 117.491 117.484 118.283 118.881C118.69 119.598 119.124 120.29 119.525 120.921L119.721 121.228L119.721 121.228C120.05 121.745 120.345 122.207 120.594 122.63C121.801 124.675 123.077 126.789 124.788 128.342C126.577 129.966 128.811 130.958 131.827 130.877C134.888 130.795 137.401 129.797 139.416 128.088C141.406 126.401 142.834 124.086 143.877 121.474C144.822 119.109 145.184 116.734 145.456 114.514C145.502 114.14 145.545 113.772 145.588 113.409L145.588 113.407L145.588 113.407C145.804 111.569 146.004 109.867 146.449 108.196Z" fill="#9AB2D4"/>
</svg>
