<svg width="132" height="174" viewBox="0 0 132 174" fill="none" xmlns="http://www.w3.org/2000/svg">
<path d="M44.6459 112.935C41.1585 112.935 45.3346 89.8414 46.1402 86.6046C47.4783 81.228 49.345 76.036 51.0085 70.7585C54.3288 60.225 57.1616 49.5526 60.8657 39.1384C63.8428 30.7683 67.8069 20.2107 75.5912 15.0377C77.7899 13.5766 80.5822 12.9945 81.0379 16.1705C81.6794 20.641 81.2852 25.4089 81.1705 29.8958C80.9603 38.1177 80.6601 46.3419 79.9654 54.5387C79.4716 60.3667 78.6448 66.1604 78.17 71.9876C78.0578 73.3639 77.5514 75.4139 78.0494 76.7836C78.2018 77.2025 78.793 76.0815 78.8207 76.0124C80.051 72.9365 80.0001 68.9251 80.3631 65.6973C82.2874 48.5859 84.8399 32.1812 92.2447 16.4597C93.9309 12.8796 96.099 9.71426 98.4386 6.54226C99.1563 5.56926 102.454 -0.211384 102.62 3.65019C102.878 9.63691 101.835 15.7915 101.475 21.7618C100.854 32.062 100.275 42.3309 98.3542 52.4902C97.2999 58.0659 94.9121 74.9132 95.4501 69.2642C95.7906 65.6894 96.97 62.1526 97.7397 58.6599C99.6116 50.1653 101.235 41.6268 103.813 33.306C105.743 27.0768 108.01 20.9379 110.2 14.7967C111.359 11.5453 112.44 5.82909 116.225 4.37321C119.484 3.11975 119.264 7.54886 119.334 9.5669C119.636 18.332 119.099 27.2804 118.334 36.0053C117.261 48.2238 114.99 61.9326 109.019 72.8793C106.565 77.3781 106.485 72.0122 106.705 69.8667C107.504 62.0926 109.119 54.1047 111.549 46.6819C113.837 39.6943 116.949 32.9464 120.491 26.5097C122.297 23.226 124.327 20.1113 127.444 17.9298C130.054 16.1023 130.402 20.3595 130.456 22.0631C130.69 29.438 129.749 37.176 128.179 44.3682C126.775 50.7965 124.626 57.0483 122.949 63.4078C120.973 70.9036 119.293 78.467 117.43 85.9901C113.432 102.132 110.072 117.853 109.67 134.577C109.47 142.857 109.98 152.606 107.525 160.654C107.277 161.464 106.878 162.214 105.97 162.16C99.4946 161.779 92.6477 164.111 86.4244 165.45C79.3695 166.968 71.9188 167.901 64.9387 169.74C62.5802 170.361 60.4453 171.584 58.0218 172.005C54.0797 172.69 53.2337 172.108 52.2617 168.125C50.2527 159.894 48.6354 151.808 47.2609 143.446C46.9275 141.418 46.954 136.141 44.1157 135.818C39.4027 135.283 33.3965 137.338 28.8841 138.578C23.4318 140.075 17.78 141.665 12.0378 141.422C8.01304 141.251 2.23724 137.906 2.09623 133.324C1.81649 124.232 10.122 117.588 17.4845 114.357C24.891 111.106 35.0825 105.577 43.2764 108.376" stroke="black" stroke-width="3" stroke-linecap="round"/>
</svg>
