<svg xmlns="http://www.w3.org/2000/svg" viewBox="0 0 180 180"><path fill="#f4c4ac" stroke="#f4c4ac" d="M111.698 13.721c-1.733.261-3.124 1.269-3.646 2.642-.464 1.22-1.592 2.84-2.506 3.598-.914.759-2.269 2.835-3.012 4.613-.744 1.778-2.305 3.536-3.471 3.906-1.165.37-2.894 2.128-3.841 3.907-1.882 3.535-3.929 6.799-15.295 24.392C58.088 90.58 42.041 115.856 40.59 118.74c-1.38 2.742-1.589 6.427-1.36 23.987.316 24.25-.277 23.295 11.072 17.836 4.074-1.96 7.761-3.563 8.193-3.563 3.675 0 23.531-11.235 25.88-14.644 2.739-3.973 11.793-18.007 14.854-23.023 3.579-5.863 12.707-19.584 25.872-38.889 12.331-18.081 15.548-23.853 15.059-27.017-.092-.59.96-2.131 2.337-3.424 1.377-1.293 2.503-2.728 2.503-3.188 0-.46.93-2.816 2.067-5.235 1.828-3.889 1.926-4.872.842-8.49-1.217-4.06-2.16-4.961-14.973-14.308-7.074-5.16-12.3-6.406-21.238-5.061" fill-rule="evenodd"/><path fill="#fbbc4c" stroke="#fbbc4c" d="M96.485 31.136c-.397 1.3-1.323 3.052-2.057 3.892C91.503 38.373 41 117.389 41 118.619c0 .725.617 1.081 1.371.792 1.817-.697 4.482 2.07 5.211 5.409.322 1.474.746 3.21.943 3.859.218.72 2.517 1.178 5.912 1.178 6.806 0 10.958 2.59 13.221 8.246L69.217 142h6.392c3.594 0 6.391.438 6.391 1 0 2.389 1.891.616 4.53-4.25 3.368-6.209 5.024-8.718 30.604-46.359 23.727-34.913 23.983-35.429 20.061-40.325-6.242-7.792-27.962-21.364-36.341-22.709-3.21-.515-3.733-.302-4.369 1.779M39.216 152.738c.24 9.071.542 10.788 1.944 11.056 1.954.374 17.833-6.892 17.837-8.162.007-2.152-6.813-8.382-11.9-10.869-8.409-4.112-8.206-4.317-7.881 7.975" fill-rule="evenodd"/><path fill="#1c0b0c" stroke="#1c0b0c" d="M39.216 152.738c.24 9.071.542 10.788 1.944 11.056 1.954.374 17.833-6.892 17.837-8.162.007-2.152-6.813-8.382-11.9-10.869-8.409-4.112-8.206-4.317-7.881 7.975" fill-rule="evenodd"/></svg>