<svg width="292" height="270" viewBox="0 0 292 270" fill="none" xmlns="http://www.w3.org/2000/svg">
<path fill-rule="evenodd" clip-rule="evenodd" d="M136.01 13.2622C109.408 23.0142 98.4871 29.5254 84.5715 42.2528C84.9183 42.5856 85.2275 42.9308 85.4958 43.2885L84.6958 43.8885C83.1686 41.8522 80.0114 40.1464 75.8203 38.8539C71.6534 37.5689 66.5562 36.7198 61.2599 36.3331C55.9654 35.9466 50.4886 36.0234 45.5668 36.5821C40.7407 37.13 36.4829 38.1374 33.4561 39.6022C26.0857 64.7232 23.8192 100.012 23.403 129.089C23.1944 143.661 23.4506 156.659 23.7589 166.014C23.9131 170.692 24.0803 174.458 24.2089 177.054C24.2732 178.353 24.3279 179.358 24.3664 180.039C24.3857 180.38 24.401 180.639 24.4114 180.813L24.4233 181.01L24.4264 181.059L24.4268 181.067L24.4272 181.071L24.4273 181.074L30.5002 257.852L30.5466 258.438L29.9605 258.39L30.0018 257.892C29.9605 258.39 29.9604 258.39 29.9602 258.39L29.9592 258.39L29.9548 258.389L29.937 258.388L29.8656 258.382C29.8024 258.377 29.7085 258.37 29.5859 258.361C29.3409 258.343 28.9817 258.317 28.5264 258.288C27.6158 258.23 26.321 258.157 24.7861 258.098C21.7142 257.981 17.6895 257.922 13.8605 258.152C10.0113 258.383 6.4319 258.903 4.20632 259.908C3.09023 260.413 2.40806 260.998 2.1391 261.639C1.88427 262.246 1.94633 263.042 2.65601 264.125C3.74839 265.791 5.57257 266.884 7.7664 267.568C9.95786 268.252 12.4691 268.513 14.8603 268.55C17.2479 268.588 19.4936 268.403 21.1442 268.209C21.9688 268.111 22.6433 268.012 23.1106 267.937C23.3443 267.899 23.5261 267.868 23.6489 267.846C23.6991 267.837 23.7395 267.83 23.7695 267.824L62.4715 248.903V209.738H62.6428L62.4198 208.819L219.893 170.643L219.959 170.912L220.728 170.913C220.717 178.034 220.281 182.77 219.877 186.618C219.834 187.02 219.792 187.412 219.751 187.795L219.751 187.795L219.751 187.796C219.399 191.086 219.114 193.758 219.21 196.926C219.318 200.492 219.696 206.122 220.049 210.867C220.225 213.238 220.394 215.386 220.52 216.941C220.582 217.718 220.634 218.347 220.67 218.782L220.711 219.276C220.761 219.293 220.824 219.313 220.902 219.335C221.293 219.446 221.916 219.573 222.747 219.716C224.402 219.999 226.811 220.327 229.667 220.688C232.15 221.002 234.976 221.34 237.931 221.694C241.752 222.152 245.788 222.636 249.574 223.125C254.793 223.798 262.266 223.946 269.45 223.876C269.437 223.831 269.426 223.787 269.415 223.742C269.149 222.681 268.381 218.549 267.187 212.122L267.186 212.119C265.919 205.303 264.172 195.908 262.037 184.855C257.881 163.35 252.245 135.525 245.777 108.069C239.309 80.6074 232.012 53.5325 224.54 33.5197C220.802 23.5095 217.03 15.2942 213.31 9.68498C211.449 6.87966 209.617 4.75095 207.83 3.37394C206.045 1.99887 204.342 1.40002 202.711 1.5722L202.681 1.57538L202.651 1.5749C193.725 1.43556 186.489 1.50217 176.779 3.02764C167.063 4.55403 154.859 7.54321 136.01 13.2622ZM219.725 171.713C219.684 178.344 219.269 182.832 218.882 186.513C218.84 186.915 218.798 187.307 218.757 187.693C218.405 190.975 218.112 193.716 218.21 196.956C218.319 200.548 218.699 206.197 219.052 210.941C219.228 213.315 219.398 215.465 219.523 217.021C219.586 217.799 219.637 218.429 219.674 218.865L219.715 219.366L219.721 219.44C219.718 219.457 219.716 219.474 219.715 219.492C219.703 219.624 219.741 219.737 219.788 219.819C219.87 219.962 219.996 220.042 220.061 220.08C220.21 220.166 220.414 220.236 220.629 220.297C221.075 220.423 221.743 220.558 222.579 220.701C224.257 220.989 226.685 221.319 229.542 221.68C232.04 221.996 234.862 222.334 237.808 222.687L237.826 222.689C241.636 223.146 245.653 223.627 249.446 224.116C254.82 224.81 262.513 224.951 269.825 224.872C270.147 225.525 270.586 226.065 271.12 226.499C271.931 227.158 272.938 227.557 274.041 227.772C276.235 228.198 278.904 227.91 281.447 227.363C284 226.814 286.478 225.992 288.314 225.309C289.233 224.968 289.994 224.66 290.525 224.437C290.791 224.326 290.999 224.236 291.142 224.174C291.213 224.143 291.268 224.118 291.305 224.102L291.348 224.083L291.359 224.078L291.362 224.076L291.363 224.076C291.363 224.076 291.363 224.076 291.308 223.954L291.363 224.076L291.126 223.121L291.156 223.62C291.126 223.121 291.126 223.121 291.125 223.121L291.124 223.121L291.121 223.122L291.106 223.123L291.045 223.126L290.807 223.14C290.598 223.153 290.289 223.17 289.891 223.192C289.095 223.236 287.942 223.297 286.517 223.365C283.666 223.5 279.725 223.663 275.364 223.771C273.783 223.811 272.148 223.843 270.49 223.864C270.451 223.747 270.416 223.625 270.385 223.499C270.125 222.461 269.37 218.396 268.19 212.048C266.925 205.241 265.172 195.808 263.018 184.665C258.862 163.154 253.223 135.314 246.751 107.839C240.28 80.3684 232.972 53.2437 225.476 33.1699C221.73 23.1369 217.927 14.8372 214.143 9.13226C212.252 6.2805 210.349 4.05235 208.441 2.58178C206.539 1.11693 204.595 0.377539 202.637 0.574565C193.704 0.435509 186.407 0.502783 176.624 2.03976C166.838 3.57716 154.579 6.58288 135.707 12.3094L135.693 12.3135L135.68 12.3184C108.929 22.124 97.8925 28.7002 83.8131 41.5912C81.9282 40.0885 79.2438 38.8632 76.115 37.8983C71.8567 36.5851 66.681 35.7263 61.3327 35.3358C55.9828 34.9452 50.4435 35.0221 45.454 35.5885C40.473 36.1539 36.0034 37.2112 32.8151 38.8031L32.6205 38.9002L32.5589 39.1088C25.0975 64.3845 22.8205 99.9082 22.4031 129.075C22.1943 143.666 22.4508 156.681 22.7595 166.047C22.9138 170.731 23.0813 174.502 23.2101 177.104C23.2745 178.405 23.3293 179.413 23.368 180.096C23.3874 180.437 23.4027 180.698 23.4132 180.873L23.4252 181.071L23.4283 181.121L23.4291 181.134L23.4293 181.137C23.4294 181.138 23.4294 181.138 23.8858 181.11L23.4293 181.138L23.43 181.146L29.4573 257.349C29.2285 257.332 28.9369 257.312 28.5904 257.29C27.6727 257.231 26.3692 257.158 24.8242 257.099C21.7365 256.981 17.6756 256.921 13.8005 257.153C9.94557 257.385 6.20243 257.909 3.7946 258.997C2.59399 259.539 1.63173 260.263 1.217 261.252C0.788133 262.274 1.00311 263.427 1.81965 264.673C3.08637 266.605 5.15307 267.8 7.46856 268.523C9.7864 269.246 12.4029 269.512 14.8446 269.55C17.2898 269.589 19.5821 269.4 21.2613 269.202C22.1016 269.103 22.79 269.001 23.2692 268.924C23.5088 268.886 23.6963 268.853 23.8244 268.831L23.8803 268.82L23.9712 268.804L24.0096 268.797L24.0197 268.795L24.0224 268.794L24.0233 268.794C24.0235 268.794 24.0237 268.794 23.9284 268.303L24.0237 268.794L24.0886 268.781L24.148 268.752L63.1911 249.665L63.4715 249.527V249.215V209.738H62.8702L219.725 171.713ZM270.966 224.858C271.188 225.194 271.452 225.48 271.751 225.723C272.4 226.251 273.24 226.597 274.231 226.79C276.226 227.177 278.736 226.923 281.236 226.385C283.726 225.85 286.155 225.045 287.966 224.372C288.046 224.342 288.125 224.312 288.203 224.283C287.708 224.308 287.16 224.336 286.564 224.364C283.708 224.5 279.759 224.662 275.389 224.771C273.953 224.807 272.471 224.836 270.966 224.858Z" fill="black"/>
<path d="M84.5715 42.2528L84.4027 42.0683L84.2058 42.2484L84.3984 42.4332L84.5715 42.2528ZM136.01 13.2622L135.938 13.023L135.931 13.0251L135.924 13.0275L136.01 13.2622ZM85.4958 43.2885L85.6458 43.4885L85.8458 43.3385L85.6958 43.1385L85.4958 43.2885ZM84.6958 43.8885L84.4958 44.0385L84.6458 44.2385L84.8458 44.0885L84.6958 43.8885ZM75.8203 38.8539L75.7467 39.0928L75.7467 39.0928L75.8203 38.8539ZM61.2599 36.3331L61.2417 36.5825L61.2417 36.5825L61.2599 36.3331ZM45.5668 36.5821L45.5386 36.3337L45.5386 36.3337L45.5668 36.5821ZM33.4561 39.6022L33.3472 39.3772L33.2474 39.4255L33.2162 39.5318L33.4561 39.6022ZM23.403 129.089L23.153 129.086L23.153 129.086L23.403 129.089ZM23.7589 166.014L24.0088 166.006L24.0088 166.006L23.7589 166.014ZM24.2089 177.054L24.4586 177.042L24.4586 177.042L24.2089 177.054ZM24.3664 180.039L24.616 180.025L24.616 180.025L24.3664 180.039ZM24.4114 180.813L24.1619 180.828L24.1619 180.828L24.4114 180.813ZM24.4233 181.01L24.1738 181.025L24.1738 181.025L24.4233 181.01ZM24.4264 181.059L24.676 181.045L24.6759 181.044L24.4264 181.059ZM24.4268 181.067L24.1771 181.081L24.1776 181.087L24.4268 181.067ZM24.4272 181.071L24.6767 181.056L24.6764 181.052L24.4272 181.071ZM24.4273 181.074L24.1778 181.09L24.1781 181.094L24.4273 181.074ZM30.5002 257.852L30.251 257.872L30.251 257.872L30.5002 257.852ZM30.5466 258.438L30.526 258.688L30.819 258.712L30.7958 258.419L30.5466 258.438ZM29.9605 258.39L29.7113 258.369L29.6907 258.618L29.9399 258.639L29.9605 258.39ZM29.9602 258.39L29.999 258.143L29.9907 258.142L29.9823 258.141L29.9602 258.39ZM29.9592 258.39L29.9813 258.141L29.9801 258.141L29.9592 258.39ZM29.9548 258.389L29.9757 258.14L29.9749 258.14L29.9548 258.389ZM29.937 258.388L29.957 258.139L29.9569 258.139L29.937 258.388ZM29.8656 258.382L29.8855 258.133L29.8851 258.133L29.8656 258.382ZM29.5859 258.361L29.6044 258.112L29.6044 258.112L29.5859 258.361ZM28.5264 258.288L28.5424 258.039L28.5424 258.039L28.5264 258.288ZM24.7861 258.098L24.7766 258.348L24.7766 258.348L24.7861 258.098ZM13.8605 258.152L13.8455 257.902L13.8455 257.902L13.8605 258.152ZM4.20632 259.908L4.30924 260.136L4.30925 260.136L4.20632 259.908ZM2.1391 261.639L2.36962 261.735L2.36963 261.735L2.1391 261.639ZM2.65601 264.125L2.44692 264.262L2.44692 264.262L2.65601 264.125ZM7.7664 267.568L7.69193 267.807L7.69194 267.807L7.7664 267.568ZM14.8603 268.55L14.8564 268.8L14.8564 268.8L14.8603 268.55ZM21.1442 268.209L21.1735 268.457L21.1735 268.457L21.1442 268.209ZM23.1106 267.937L23.071 267.69L23.071 267.69L23.1106 267.937ZM23.6489 267.846L23.6927 268.092L23.6928 268.092L23.6489 267.846ZM23.7695 267.824L23.815 268.07L23.8486 268.064L23.8793 268.049L23.7695 267.824ZM62.4715 248.903L62.5813 249.128L62.7215 249.059V248.903H62.4715ZM62.4715 209.738V209.488H62.2215V209.738H62.4715ZM62.6428 209.738V209.988H62.9607L62.8858 209.68L62.6428 209.738ZM62.4198 208.819L62.3609 208.576L62.118 208.635L62.1769 208.878L62.4198 208.819ZM219.893 170.643L220.136 170.584L220.078 170.341L219.835 170.4L219.893 170.643ZM219.959 170.912L219.716 170.971L219.762 171.162L219.958 171.162L219.959 170.912ZM220.728 170.913L220.978 170.913L220.979 170.663L220.729 170.663L220.728 170.913ZM219.877 186.618L219.628 186.592L219.628 186.592L219.877 186.618ZM219.751 187.795L219.996 187.844L219.999 187.833L220 187.822L219.751 187.795ZM219.751 187.795L219.506 187.746L219.503 187.759L219.502 187.773L219.751 187.795ZM219.751 187.796L220 187.823L220 187.819L219.751 187.796ZM219.21 196.926L219.459 196.918L219.459 196.918L219.21 196.926ZM220.049 210.867L220.298 210.849L220.298 210.849L220.049 210.867ZM220.67 218.782L220.421 218.803L220.421 218.803L220.67 218.782ZM220.711 219.276L220.462 219.296L220.476 219.459L220.63 219.512L220.711 219.276ZM220.902 219.335L220.97 219.094L220.97 219.094L220.902 219.335ZM222.747 219.716L222.789 219.469L222.789 219.469L222.747 219.716ZM229.667 220.688L229.636 220.936L229.636 220.936L229.667 220.688ZM237.931 221.694L237.961 221.446L237.961 221.446L237.931 221.694ZM249.574 223.125L249.542 223.372L249.542 223.372L249.574 223.125ZM269.45 223.876L269.452 224.126L269.777 224.122L269.691 223.809L269.45 223.876ZM269.415 223.742L269.172 223.802L269.172 223.802L269.415 223.742ZM267.187 212.122L267.432 212.077L267.432 212.077L267.187 212.122ZM267.186 212.119L266.94 212.164L266.94 212.164L267.186 212.119ZM262.037 184.855L262.282 184.807L262.282 184.807L262.037 184.855ZM245.777 108.069L245.534 108.126L245.534 108.126L245.777 108.069ZM224.54 33.5197L224.305 33.6072L224.305 33.6072L224.54 33.5197ZM213.31 9.68498L213.518 9.5468L213.518 9.5468L213.31 9.68498ZM207.83 3.37394L207.983 3.1759L207.983 3.1759L207.83 3.37394ZM202.711 1.5722L202.738 1.82082L202.738 1.82082L202.711 1.5722ZM202.681 1.57538L202.677 1.82535L202.692 1.82558L202.707 1.82399L202.681 1.57538ZM202.651 1.5749L202.647 1.82487L202.647 1.82487L202.651 1.5749ZM176.779 3.02764L176.74 2.78067L176.74 2.78067L176.779 3.02764ZM219.725 171.713L219.975 171.715L219.977 171.395L219.666 171.47L219.725 171.713ZM218.882 186.513L219.131 186.539L219.131 186.539L218.882 186.513ZM218.757 187.693L218.508 187.666L218.508 187.666L218.757 187.693ZM218.21 196.956L218.46 196.949L218.46 196.949L218.21 196.956ZM219.052 210.941L219.301 210.923L219.301 210.923L219.052 210.941ZM219.523 217.021L219.772 217.001L219.772 217.001L219.523 217.021ZM219.674 218.865L219.424 218.885L219.424 218.885L219.674 218.865ZM219.715 219.366L219.466 219.387L219.466 219.387L219.715 219.366ZM219.721 219.44L219.968 219.485L219.973 219.452L219.971 219.419L219.721 219.44ZM219.715 219.492L219.964 219.513L219.964 219.513L219.715 219.492ZM219.788 219.819L219.571 219.944L219.571 219.944L219.788 219.819ZM220.061 220.08L220.187 219.864L220.186 219.864L220.061 220.08ZM220.629 220.297L220.56 220.537L220.56 220.537L220.629 220.297ZM222.579 220.701L222.537 220.948L222.537 220.948L222.579 220.701ZM229.542 221.68L229.573 221.432L229.573 221.432L229.542 221.68ZM237.808 222.687L237.779 222.935L237.779 222.935L237.808 222.687ZM237.826 222.689L237.856 222.441L237.856 222.441L237.826 222.689ZM249.446 224.116L249.414 224.364L249.414 224.364L249.446 224.116ZM269.825 224.872L270.049 224.761L269.979 224.62L269.822 224.622L269.825 224.872ZM271.12 226.499L270.963 226.693L270.963 226.693L271.12 226.499ZM274.041 227.772L273.993 228.017L273.993 228.017L274.041 227.772ZM281.447 227.363L281.394 227.118L281.394 227.118L281.447 227.363ZM288.314 225.309L288.401 225.544L288.401 225.544L288.314 225.309ZM290.525 224.437L290.622 224.668L290.622 224.668L290.525 224.437ZM291.142 224.174L291.242 224.403L291.242 224.403L291.142 224.174ZM291.305 224.102L291.407 224.33L291.408 224.33L291.305 224.102ZM291.348 224.083L291.45 224.311L291.451 224.31L291.348 224.083ZM291.359 224.078L291.462 224.305L291.463 224.305L291.359 224.078ZM291.362 224.076L291.264 223.846L291.258 223.849L291.362 224.076ZM291.363 224.076L291.461 224.306L291.468 224.303L291.475 224.299L291.363 224.076ZM291.308 223.954L291.535 223.85L291.08 224.057L291.308 223.954ZM291.363 224.076L291.136 224.179L291.606 224.015L291.363 224.076ZM291.126 223.121L291.368 223.061L290.876 223.137L291.126 223.121ZM291.125 223.121L291.142 223.371L291.154 223.37L291.167 223.368L291.125 223.121ZM291.124 223.121L291.139 223.371L291.141 223.371L291.124 223.121ZM291.121 223.122L291.107 222.872L291.106 222.872L291.121 223.122ZM291.106 223.123L291.09 222.873L291.09 222.873L291.106 223.123ZM291.045 223.126L291.06 223.376L291.06 223.376L291.045 223.126ZM290.807 223.14L290.822 223.39L290.822 223.39L290.807 223.14ZM289.891 223.192L289.877 222.943L289.877 222.943L289.891 223.192ZM286.517 223.365L286.529 223.615L286.529 223.615L286.517 223.365ZM275.364 223.771L275.358 223.521L275.358 223.521L275.364 223.771ZM270.49 223.864L270.253 223.943L270.311 224.116L270.494 224.114L270.49 223.864ZM270.385 223.499L270.142 223.56L270.142 223.56L270.385 223.499ZM268.19 212.048L267.944 212.094L267.944 212.094L268.19 212.048ZM263.018 184.665L263.264 184.618L263.264 184.618L263.018 184.665ZM246.751 107.839L246.507 107.897L246.507 107.897L246.751 107.839ZM225.476 33.1699L225.711 33.0825L225.711 33.0825L225.476 33.1699ZM214.143 9.13226L213.935 9.27044L213.935 9.27044L214.143 9.13226ZM208.441 2.58178L208.593 2.38374L208.593 2.38374L208.441 2.58178ZM202.637 0.574565L202.633 0.824535L202.648 0.82476L202.662 0.823309L202.637 0.574565ZM176.624 2.03976L176.585 1.79279L176.585 1.79279L176.624 2.03976ZM135.707 12.3094L135.634 12.0702L135.634 12.0702L135.707 12.3094ZM135.693 12.3135L135.62 12.074L135.607 12.0788L135.693 12.3135ZM135.68 12.3184L135.594 12.0837L135.594 12.0837L135.68 12.3184ZM83.8131 41.5912L83.6573 41.7867L83.8244 41.9199L83.9819 41.7756L83.8131 41.5912ZM76.115 37.8983L76.1887 37.6594L76.1887 37.6594L76.115 37.8983ZM61.3327 35.3358L61.3145 35.5851L61.3145 35.5851L61.3327 35.3358ZM45.454 35.5885L45.4822 35.8369L45.4822 35.8369L45.454 35.5885ZM32.8151 38.8031L32.9268 39.0267L32.9268 39.0267L32.8151 38.8031ZM32.6205 38.9002L32.5088 38.6766L32.4115 38.7251L32.3807 38.8294L32.6205 38.9002ZM32.5589 39.1088L32.7987 39.1796L32.7987 39.1796L32.5589 39.1088ZM22.4031 129.075L22.1531 129.072L22.1531 129.072L22.4031 129.075ZM22.7595 166.047L23.0093 166.039L23.0093 166.039L22.7595 166.047ZM23.2101 177.104L23.4598 177.091L23.4598 177.091L23.2101 177.104ZM23.368 180.096L23.6176 180.082L23.6176 180.082L23.368 180.096ZM23.4132 180.873L23.1636 180.888L23.1637 180.888L23.4132 180.873ZM23.4252 181.071L23.1757 181.086L23.1757 181.087L23.4252 181.071ZM23.4283 181.121L23.1788 181.137L23.1788 181.137L23.4283 181.121ZM23.4291 181.134L23.1796 181.15L23.1796 181.15L23.4291 181.134ZM23.4293 181.137L23.6789 181.122L23.6788 181.121L23.4293 181.137ZM23.8858 181.11L23.9015 181.359L23.87 180.86L23.8858 181.11ZM23.4293 181.138L23.4136 180.889L23.1601 180.905L23.1801 181.158L23.4293 181.138ZM23.43 181.146L23.1807 181.166L23.1807 181.166L23.43 181.146ZM29.4573 257.349L29.4394 257.598L29.7295 257.619L29.7065 257.329L29.4573 257.349ZM28.5904 257.29L28.5744 257.54L28.5744 257.54L28.5904 257.29ZM24.8242 257.099L24.8147 257.349L24.8147 257.349L24.8242 257.099ZM13.8005 257.153L13.8155 257.403L13.8155 257.403L13.8005 257.153ZM3.7946 258.997L3.89753 259.225L3.89753 259.225L3.7946 258.997ZM1.217 261.252L1.44752 261.348L1.44752 261.348L1.217 261.252ZM1.81965 264.673L1.61057 264.81L1.61057 264.81L1.81965 264.673ZM7.46856 268.523L7.54302 268.284L7.54301 268.284L7.46856 268.523ZM14.8446 269.55L14.8406 269.8L14.8406 269.8L14.8446 269.55ZM21.2613 269.202L21.2906 269.45L21.2906 269.45L21.2613 269.202ZM23.2692 268.924L23.2296 268.677L23.2295 268.677L23.2692 268.924ZM23.8244 268.831L23.8683 269.077L23.8686 269.077L23.8244 268.831ZM23.8803 268.82L23.9245 269.067L23.9254 269.066L23.8803 268.82ZM23.9712 268.804L24.0163 269.05L24.0175 269.05L23.9712 268.804ZM24.0096 268.797L24.0559 269.042L24.0562 269.042L24.0096 268.797ZM24.0197 268.795L24.0663 269.04L24.0684 269.04L24.0197 268.795ZM24.0224 268.794L23.9758 268.549L23.9737 268.549L24.0224 268.794ZM24.0233 268.794L23.9918 268.546L23.9841 268.547L23.9766 268.548L24.0233 268.794ZM24.0237 268.794L23.7782 268.842L23.8259 269.087L24.0712 269.039L24.0237 268.794ZM24.0886 268.781L24.1361 269.027L24.1686 269.02L24.1984 269.006L24.0886 268.781ZM24.148 268.752L24.0382 268.528L24.0382 268.528L24.148 268.752ZM63.1911 249.665L63.3009 249.889L63.3009 249.889L63.1911 249.665ZM63.4715 249.527L63.5813 249.752L63.7215 249.684V249.527H63.4715ZM63.4715 209.738H63.7215V209.488H63.4715V209.738ZM62.8702 209.738L62.8113 209.496L62.8702 209.988V209.738ZM271.751 225.723L271.909 225.53L271.909 225.529L271.751 225.723ZM270.966 224.858L270.963 224.608L270.507 224.614L270.758 224.995L270.966 224.858ZM274.231 226.79L274.184 227.035L274.184 227.035L274.231 226.79ZM281.236 226.385L281.184 226.141L281.184 226.141L281.236 226.385ZM287.966 224.372L288.053 224.606L288.053 224.606L287.966 224.372ZM288.203 224.283L288.291 224.517L288.19 224.034L288.203 224.283ZM286.564 224.364L286.576 224.614L286.576 224.614L286.564 224.364ZM275.389 224.771L275.383 224.521L275.383 224.521L275.389 224.771ZM84.7402 42.4373C98.6251 29.7379 109.515 23.2413 136.097 13.497L135.924 13.0275C109.301 22.7871 98.349 29.3128 84.4027 42.0683L84.7402 42.4373ZM85.6958 43.1385C85.4185 42.7688 85.1001 42.4136 84.7445 42.0724L84.3984 42.4332C84.7365 42.7576 85.0365 43.0928 85.2958 43.4385L85.6958 43.1385ZM84.8458 44.0885L85.6458 43.4885L85.3458 43.0885L84.5458 43.6885L84.8458 44.0885ZM75.7467 39.0928C79.9271 40.382 83.0184 42.0686 84.4958 44.0385L84.8958 43.7385C83.3188 41.6358 80.0958 39.9108 75.894 38.615L75.7467 39.0928ZM61.2417 36.5825C66.525 36.9682 71.6026 37.8149 75.7467 39.0928L75.894 38.615C71.7043 37.323 66.5874 36.4714 61.2781 36.0838L61.2417 36.5825ZM45.595 36.8305C50.4999 36.2737 55.9611 36.1969 61.2417 36.5825L61.2781 36.0838C55.9698 35.6962 50.4774 35.7731 45.5386 36.3337L45.595 36.8305ZM33.565 39.8273C36.5555 38.38 40.7816 37.3769 45.595 36.8305L45.5386 36.3337C40.6997 36.883 36.4103 37.8948 33.3472 39.3772L33.565 39.8273ZM23.653 129.093C24.0691 100.017 26.3359 64.7584 33.696 39.6726L33.2162 39.5318C25.8355 64.6879 23.5692 100.006 23.153 129.086L23.653 129.093ZM24.0088 166.006C23.7006 156.654 23.4445 143.66 23.653 129.093L23.153 129.086C22.9444 143.662 23.2007 156.665 23.5091 166.022L24.0088 166.006ZM24.4586 177.042C24.33 174.447 24.1629 170.682 24.0088 166.006L23.5091 166.022C23.6633 170.701 23.8305 174.469 23.9592 177.067L24.4586 177.042ZM24.616 180.025C24.5775 179.345 24.5229 178.34 24.4586 177.042L23.9592 177.067C24.0235 178.366 24.0782 179.372 24.1168 180.053L24.616 180.025ZM24.661 180.798C24.6505 180.624 24.6353 180.365 24.616 180.025L24.1168 180.053C24.1361 180.394 24.1514 180.654 24.1619 180.828L24.661 180.798ZM24.6729 180.995L24.6609 180.798L24.1619 180.828L24.1738 181.025L24.6729 180.995ZM24.6759 181.044L24.6729 180.994L24.1738 181.025L24.1769 181.075L24.6759 181.044ZM24.6765 181.054L24.676 181.045L24.1768 181.073L24.1772 181.081L24.6765 181.054ZM24.6764 181.052L24.6761 181.048L24.1776 181.087L24.1779 181.091L24.6764 181.052ZM24.6769 181.059L24.6767 181.056L24.1776 181.087L24.1778 181.09L24.6769 181.059ZM30.7494 257.832L24.6766 181.055L24.1781 181.094L30.251 257.872L30.7494 257.832ZM30.7958 258.419L30.7494 257.832L30.251 257.872L30.2974 258.458L30.7958 258.419ZM29.9399 258.639L30.526 258.688L30.5672 258.189L29.9811 258.141L29.9399 258.639ZM29.7526 257.871L29.7113 258.369L30.2096 258.411L30.2509 257.912L29.7526 257.871ZM29.9215 258.637C29.9215 258.637 29.9227 258.637 29.9239 258.637C29.9252 258.637 29.9288 258.638 29.9312 258.638C29.9375 258.639 29.9478 258.64 29.9607 258.64C29.9884 258.64 30.0253 258.635 30.0645 258.617C30.1413 258.582 30.1744 258.521 30.1843 258.501C30.1958 258.478 30.2009 258.458 30.2024 258.452C30.2046 258.443 30.2059 258.437 30.2064 258.433C30.2076 258.427 30.2083 258.421 30.2085 258.42C30.2087 258.418 30.2089 258.416 30.209 258.415C30.2094 258.411 30.2097 258.407 30.2101 258.404C30.2108 258.395 30.2121 258.379 30.2147 258.348C30.2199 258.286 30.2303 258.161 30.2509 257.912L29.7526 257.871C29.732 258.12 29.7217 258.245 29.7165 258.307C29.7139 258.338 29.7126 258.353 29.7119 258.36C29.7116 258.365 29.7116 258.364 29.7117 258.363C29.7118 258.362 29.7119 258.361 29.7122 258.359C29.7123 258.358 29.7129 258.353 29.7141 258.346C29.7147 258.343 29.7159 258.336 29.7181 258.328C29.7196 258.322 29.7247 258.302 29.7362 258.279C29.7461 258.259 29.7792 258.198 29.8559 258.163C29.8952 258.145 29.9321 258.14 29.9598 258.14C29.9726 258.14 29.983 258.141 29.9892 258.142C29.9917 258.142 29.9953 258.142 29.9965 258.143C29.9977 258.143 29.999 258.143 29.999 258.143L29.9215 258.637ZM29.9371 258.639L29.9382 258.639L29.9823 258.141L29.9813 258.141L29.9371 258.639ZM29.9339 258.639L29.9383 258.639L29.9801 258.141L29.9757 258.14L29.9339 258.639ZM29.917 258.637L29.9348 258.639L29.9749 258.14L29.957 258.139L29.917 258.637ZM29.8457 258.631L29.9171 258.637L29.9569 258.139L29.8855 258.133L29.8457 258.631ZM29.5674 258.61C29.6895 258.619 29.7832 258.627 29.8461 258.632L29.8851 258.133C29.8217 258.128 29.7274 258.121 29.6044 258.112L29.5674 258.61ZM28.5105 258.538C28.9649 258.567 29.3232 258.592 29.5675 258.61L29.6044 258.112C29.3586 258.093 28.9986 258.068 28.5424 258.039L28.5105 258.538ZM24.7766 258.348C26.3089 258.407 27.6016 258.479 28.5105 258.538L28.5424 258.039C27.63 257.98 26.333 257.907 24.7956 257.848L24.7766 258.348ZM13.8754 258.401C17.693 258.172 21.7087 258.231 24.7766 258.348L24.7956 257.848C21.7198 257.731 17.686 257.671 13.8455 257.902L13.8754 258.401ZM4.30925 260.136C6.48925 259.151 10.0277 258.632 13.8754 258.401L13.8455 257.902C9.99492 258.133 6.37455 258.654 4.10339 259.681L4.30925 260.136ZM2.36963 261.735C2.60217 261.181 3.21438 260.631 4.30924 260.136L4.10339 259.681C2.96607 260.194 2.21395 260.814 1.90857 261.542L2.36963 261.735ZM2.86509 263.988C2.18245 262.946 2.15815 262.239 2.36962 261.735L1.90858 261.542C1.6104 262.252 1.71021 263.138 2.44692 264.262L2.86509 263.988ZM7.84086 267.33C5.67748 266.655 3.91391 265.588 2.86509 263.988L2.44692 264.262C3.58287 265.995 5.46765 267.113 7.69193 267.807L7.84086 267.33ZM14.8643 268.3C12.4856 268.263 10.0007 268.004 7.84085 267.33L7.69194 267.807C9.915 268.501 12.4526 268.762 14.8564 268.8L14.8643 268.3ZM21.1149 267.96C19.4715 268.154 17.2375 268.338 14.8643 268.3L14.8564 268.8C17.2584 268.838 19.5157 268.653 21.1735 268.457L21.1149 267.96ZM23.071 267.69C22.6066 267.765 21.9356 267.864 21.1149 267.96L21.1735 268.457C22.002 268.359 22.6799 268.259 23.1503 268.184L23.071 267.69ZM23.605 267.6C23.4835 267.622 23.3031 267.653 23.071 267.69L23.1502 268.184C23.3854 268.146 23.5686 268.114 23.6927 268.092L23.605 267.6ZM23.724 267.578C23.6945 267.584 23.6547 267.591 23.605 267.6L23.6928 268.092C23.7436 268.083 23.7845 268.076 23.815 268.07L23.724 267.578ZM62.3617 248.679L23.6597 267.6L23.8793 268.049L62.5813 249.128L62.3617 248.679ZM62.2215 209.738V248.903H62.7215V209.738H62.2215ZM62.6428 209.488H62.4715V209.988H62.6428V209.488ZM62.8858 209.68L62.6628 208.76L62.1769 208.878L62.3999 209.797L62.8858 209.68ZM62.4787 209.062L219.952 170.886L219.835 170.4L62.3609 208.576L62.4787 209.062ZM219.651 170.702L219.716 170.971L220.202 170.853L220.136 170.584L219.651 170.702ZM220.729 170.663L219.959 170.662L219.958 171.162L220.728 171.163L220.729 170.663ZM220.125 186.644C220.531 182.791 220.967 178.046 220.978 170.913L220.478 170.913C220.467 178.022 220.032 182.749 219.628 186.592L220.125 186.644ZM220 187.822C220.041 187.438 220.083 187.046 220.125 186.644L219.628 186.592C219.586 186.993 219.544 187.385 219.503 187.769L220 187.822ZM219.996 187.844L219.996 187.844L219.506 187.746L219.506 187.746L219.996 187.844ZM220 187.819L220 187.818L219.502 187.773L219.502 187.774L220 187.819ZM219.459 196.918C219.364 193.77 219.648 191.114 220 187.823L219.503 187.77C219.151 191.057 218.863 193.746 218.96 196.933L219.459 196.918ZM220.298 210.849C219.946 206.103 219.567 200.479 219.459 196.918L218.96 196.933C219.068 200.506 219.447 206.141 219.8 210.886L220.298 210.849ZM220.769 216.921C220.644 215.366 220.474 213.219 220.298 210.849L219.8 210.886C219.976 213.258 220.145 215.406 220.271 216.961L220.769 216.921ZM220.919 218.762C220.883 218.327 220.832 217.698 220.769 216.921L220.271 216.961C220.333 217.739 220.385 218.368 220.421 218.803L220.919 218.762ZM220.96 219.255L220.919 218.762L220.421 218.803L220.462 219.296L220.96 219.255ZM220.97 219.094C220.896 219.073 220.837 219.055 220.793 219.039L220.63 219.512C220.685 219.531 220.752 219.552 220.833 219.575L220.97 219.094ZM222.789 219.469C221.96 219.327 221.347 219.201 220.97 219.094L220.833 219.575C221.238 219.69 221.873 219.82 222.705 219.962L222.789 219.469ZM229.699 220.44C226.842 220.079 224.439 219.751 222.789 219.469L222.705 219.962C224.366 220.246 226.779 220.575 229.636 220.936L229.699 220.44ZM237.961 221.446C235.006 221.092 232.181 220.754 229.699 220.44L229.636 220.936C232.12 221.25 234.947 221.589 237.901 221.943L237.961 221.446ZM249.606 222.877C245.818 222.388 241.781 221.904 237.961 221.446L237.901 221.943C241.722 222.401 245.757 222.884 249.542 223.372L249.606 222.877ZM269.447 223.626C262.265 223.696 254.807 223.548 249.606 222.877L249.542 223.372C254.78 224.048 262.268 224.196 269.452 224.126L269.447 223.626ZM269.172 223.802C269.184 223.849 269.196 223.896 269.209 223.942L269.691 223.809C269.679 223.767 269.668 223.724 269.657 223.681L269.172 223.802ZM266.941 212.168C268.134 218.588 268.904 222.732 269.172 223.802L269.657 223.681C269.394 222.63 268.628 218.511 267.432 212.077L266.941 212.168ZM266.94 212.164L266.941 212.168L267.432 212.077L267.432 212.073L266.94 212.164ZM261.791 184.902C263.927 195.954 265.673 205.349 266.94 212.164L267.432 212.073C266.165 205.258 264.418 195.861 262.282 184.807L261.791 184.902ZM245.534 108.126C252.001 135.578 257.636 163.399 261.791 184.902L262.282 184.807C258.126 163.301 252.489 135.472 246.021 108.011L245.534 108.126ZM224.305 33.6072C231.773 53.6048 239.066 80.6672 245.534 108.126L246.021 108.011C239.551 80.5477 232.252 53.4603 224.774 33.4323L224.305 33.6072ZM213.101 9.82316C216.806 15.4085 220.57 23.6026 224.305 33.6072L224.774 33.4323C221.034 23.4163 217.254 15.18 213.518 9.5468L213.101 9.82316ZM207.678 3.57198C209.435 4.9256 211.249 7.02945 213.101 9.82316L213.518 9.5468C211.65 6.72987 209.8 4.5763 207.983 3.1759L207.678 3.57198ZM202.738 1.82082C204.284 1.65757 205.925 2.22132 207.678 3.57198L207.983 3.1759C206.166 1.77642 204.4 1.14248 202.685 1.32358L202.738 1.82082ZM202.707 1.82399L202.738 1.82082L202.685 1.32358L202.655 1.32676L202.707 1.82399ZM202.647 1.82487L202.677 1.82535L202.685 1.32541L202.655 1.32494L202.647 1.82487ZM176.818 3.27462C186.506 1.75244 193.726 1.6856 202.647 1.82487L202.655 1.32494C193.724 1.18551 186.471 1.2519 176.74 2.78067L176.818 3.27462ZM136.083 13.5015C154.928 7.78365 167.119 4.79834 176.818 3.27462L176.74 2.78067C167.008 4.30972 154.79 7.30277 135.938 13.023L136.083 13.5015ZM219.475 171.712C219.434 178.332 219.02 182.81 218.633 186.487L219.131 186.539C219.519 182.853 219.934 178.357 219.975 171.715L219.475 171.712ZM218.633 186.487C218.591 186.888 218.549 187.281 218.508 187.666L219.005 187.719C219.046 187.334 219.088 186.941 219.131 186.539L218.633 186.487ZM218.508 187.666C218.157 190.947 217.861 193.704 217.96 196.964L218.46 196.949C218.362 193.728 218.654 191.003 219.005 187.719L218.508 187.666ZM217.96 196.964C218.069 200.561 218.45 206.216 218.802 210.96L219.301 210.923C218.949 206.178 218.569 200.534 218.46 196.949L217.96 196.964ZM218.802 210.96C218.979 213.334 219.148 215.485 219.274 217.041L219.772 217.001C219.647 215.445 219.477 213.296 219.301 210.923L218.802 210.96ZM219.274 217.041C219.337 217.82 219.388 218.45 219.424 218.885L219.923 218.844C219.887 218.409 219.835 217.779 219.772 217.001L219.274 217.041ZM219.424 218.885L219.466 219.387L219.964 219.345L219.923 218.844L219.424 218.885ZM219.466 219.387L219.472 219.461L219.971 219.419L219.964 219.345L219.466 219.387ZM219.475 219.396C219.471 219.42 219.468 219.445 219.465 219.471L219.964 219.513C219.965 219.503 219.966 219.494 219.968 219.485L219.475 219.396ZM219.466 219.471C219.449 219.664 219.504 219.827 219.571 219.944L220.005 219.695C219.978 219.647 219.958 219.585 219.964 219.513L219.466 219.471ZM219.571 219.944C219.687 220.145 219.86 220.253 219.936 220.296L220.186 219.864C220.132 219.832 220.053 219.779 220.005 219.695L219.571 219.944ZM219.936 220.296C220.113 220.399 220.343 220.476 220.56 220.537L220.697 220.056C220.485 219.996 220.307 219.933 220.187 219.864L219.936 220.296ZM220.56 220.537C221.02 220.668 221.7 220.805 222.537 220.948L222.621 220.455C221.786 220.312 221.129 220.179 220.697 220.056L220.56 220.537ZM222.537 220.948C224.221 221.236 226.654 221.567 229.511 221.928L229.573 221.432C226.717 221.071 224.294 220.741 222.621 220.455L222.537 220.948ZM229.511 221.928C232.01 222.244 234.832 222.582 237.779 222.935L237.838 222.439C234.892 222.086 232.07 221.748 229.573 221.432L229.511 221.928ZM237.779 222.935L237.796 222.937L237.856 222.441L237.838 222.439L237.779 222.935ZM237.796 222.937C241.607 223.394 245.623 223.875 249.414 224.364L249.478 223.868C245.684 223.379 241.666 222.897 237.856 222.441L237.796 222.937ZM249.414 224.364C254.806 225.06 262.515 225.201 269.827 225.122L269.822 224.622C262.512 224.701 254.833 224.559 249.478 223.868L249.414 224.364ZM269.6 224.982C269.939 225.668 270.4 226.236 270.963 226.693L271.278 226.305C270.771 225.893 270.355 225.382 270.049 224.761L269.6 224.982ZM270.963 226.693C271.814 227.385 272.863 227.797 273.993 228.017L274.088 227.526C273.013 227.317 272.048 226.931 271.278 226.305L270.963 226.693ZM273.993 228.017C276.238 228.453 278.946 228.156 281.499 227.607L281.394 227.118C278.862 227.663 276.233 227.943 274.088 227.526L273.993 228.017ZM281.499 227.607C284.069 227.055 286.559 226.228 288.401 225.544L288.227 225.075C286.398 225.755 283.932 226.573 281.394 227.118L281.499 227.607ZM288.401 225.544C289.324 225.201 290.088 224.892 290.622 224.668L290.429 224.207C289.9 224.428 289.142 224.735 288.227 225.075L288.401 225.544ZM290.622 224.668C290.889 224.556 291.098 224.466 291.242 224.403L291.042 223.945C290.9 224.007 290.693 224.096 290.429 224.207L290.622 224.668ZM291.242 224.403C291.314 224.371 291.37 224.347 291.407 224.33L291.203 223.873C291.167 223.89 291.112 223.914 291.042 223.945L291.242 224.403ZM291.408 224.33L291.45 224.311L291.246 223.854L291.203 223.873L291.408 224.33ZM291.451 224.31L291.462 224.305L291.256 223.85L291.245 223.855L291.451 224.31ZM291.463 224.305L291.466 224.303L291.258 223.849L291.255 223.85L291.463 224.305ZM291.461 224.306L291.461 224.306L291.264 223.846L291.264 223.846L291.461 224.306ZM291.475 224.299C291.472 224.3 291.545 224.27 291.586 224.189C291.62 224.122 291.613 224.061 291.611 224.047C291.609 224.026 291.604 224.01 291.603 224.005C291.601 223.999 291.599 223.993 291.598 223.99C291.595 223.982 291.592 223.975 291.592 223.975C291.59 223.971 291.588 223.965 291.584 223.958C291.577 223.942 291.563 223.911 291.535 223.85L291.08 224.057C291.108 224.118 291.121 224.148 291.128 224.163C291.132 224.171 291.133 224.173 291.133 224.173C291.133 224.173 291.132 224.172 291.132 224.17C291.131 224.17 291.13 224.166 291.128 224.161C291.127 224.158 291.125 224.153 291.123 224.146C291.122 224.141 291.117 224.125 291.115 224.105C291.113 224.091 291.106 224.03 291.14 223.963C291.181 223.882 291.253 223.851 291.251 223.852L291.475 224.299ZM291.08 224.057L291.136 224.179L291.591 223.972L291.535 223.85L291.08 224.057ZM291.606 224.015L291.368 223.061L290.883 223.182L291.121 224.136L291.606 224.015ZM290.876 223.137L290.907 223.636L291.406 223.605L291.375 223.106L290.876 223.137ZM291.406 223.605C291.391 223.356 291.383 223.231 291.379 223.168C291.377 223.137 291.376 223.121 291.375 223.113C291.375 223.109 291.375 223.105 291.375 223.102C291.375 223.101 291.374 223.099 291.374 223.097C291.374 223.095 291.374 223.09 291.373 223.084C291.372 223.081 291.371 223.074 291.369 223.066C291.368 223.06 291.364 223.041 291.353 223.018C291.345 223 291.314 222.935 291.236 222.897C291.195 222.877 291.156 222.871 291.126 222.871C291.112 222.871 291.101 222.872 291.095 222.873C291.092 222.874 291.088 222.874 291.087 222.874C291.086 222.875 291.084 222.875 291.084 222.875L291.167 223.368C291.166 223.368 291.165 223.368 291.164 223.368C291.163 223.369 291.159 223.369 291.156 223.369C291.15 223.37 291.139 223.371 291.125 223.371C291.095 223.371 291.056 223.366 291.015 223.346C290.937 223.307 290.906 223.242 290.898 223.224C290.887 223.202 290.883 223.182 290.882 223.177C290.88 223.169 290.879 223.162 290.878 223.159C290.877 223.153 290.877 223.148 290.877 223.147C290.877 223.145 290.876 223.143 290.876 223.143C290.876 223.141 290.876 223.141 290.877 223.146C290.877 223.153 290.878 223.168 290.88 223.199C290.884 223.262 290.892 223.386 290.907 223.636L291.406 223.605ZM291.109 222.872L291.108 222.872L291.141 223.371L291.142 223.371L291.109 222.872ZM291.11 222.872L291.107 222.872L291.135 223.371L291.139 223.371L291.11 222.872ZM291.106 222.872L291.09 222.873L291.121 223.372L291.136 223.371L291.106 222.872ZM291.09 222.873L291.03 222.877L291.06 223.376L291.121 223.372L291.09 222.873ZM291.03 222.877L290.792 222.891L290.822 223.39L291.06 223.376L291.03 222.877ZM290.793 222.891C290.584 222.903 290.275 222.921 289.877 222.943L289.905 223.442C290.303 223.42 290.612 223.402 290.822 223.39L290.793 222.891ZM289.877 222.943C289.082 222.987 287.929 223.048 286.505 223.115L286.529 223.615C287.955 223.547 289.108 223.486 289.905 223.442L289.877 222.943ZM286.505 223.115C283.655 223.251 279.716 223.413 275.358 223.521L275.37 224.021C279.733 223.913 283.676 223.75 286.529 223.615L286.505 223.115ZM275.358 223.521C273.777 223.561 272.143 223.593 270.487 223.614L270.494 224.114C272.152 224.093 273.788 224.061 275.37 224.021L275.358 223.521ZM270.728 223.785C270.691 223.674 270.657 223.558 270.627 223.438L270.142 223.56C270.175 223.692 270.212 223.819 270.253 223.943L270.728 223.785ZM270.627 223.439C270.37 222.41 269.617 218.358 268.436 212.003L267.944 212.094C269.122 218.435 269.88 222.511 270.142 223.56L270.627 223.439ZM268.436 212.003C267.171 205.196 265.417 195.762 263.264 184.618L262.773 184.712C264.926 195.855 266.679 205.287 267.944 212.094L268.436 212.003ZM263.264 184.618C259.107 163.105 253.467 135.262 246.994 107.782L246.507 107.897C252.978 135.367 258.617 163.203 262.773 184.712L263.264 184.618ZM246.994 107.782C240.522 80.3087 233.212 53.1715 225.711 33.0825L225.242 33.2574C232.732 53.3159 240.037 80.4282 246.507 107.897L246.994 107.782ZM225.711 33.0825C221.962 23.0438 218.151 14.7229 214.351 8.99408L213.935 9.27044C217.703 14.9514 221.498 23.2301 225.242 33.2574L225.711 33.0825ZM214.351 8.99408C212.452 6.13071 210.532 3.8777 208.593 2.38374L208.288 2.77982C210.166 4.227 212.051 6.4303 213.935 9.27044L214.351 8.99408ZM208.593 2.38374C206.66 0.894712 204.655 0.120337 202.612 0.325821L202.662 0.823309C204.536 0.634742 206.418 1.33915 208.288 2.77982L208.593 2.38374ZM202.641 0.324595C193.703 0.185461 186.389 0.252516 176.585 1.79279L176.663 2.28673C186.424 0.75305 193.705 0.685558 202.633 0.824535L202.641 0.324595ZM176.585 1.79279C166.782 3.33285 154.51 6.34244 135.634 12.0702L135.779 12.5487C154.647 6.82332 166.894 3.82147 176.663 2.28673L176.585 1.79279ZM135.634 12.0702L135.62 12.0743L135.766 12.5528L135.779 12.5486L135.634 12.0702ZM135.607 12.0788L135.594 12.0837L135.766 12.5532L135.779 12.5483L135.607 12.0788ZM135.594 12.0837C108.822 21.897 97.7543 28.4878 83.6443 41.4068L83.9819 41.7756C98.0307 28.9127 109.036 22.3511 135.766 12.5532L135.594 12.0837ZM83.969 41.3957C82.0494 39.8653 79.3315 38.6286 76.1887 37.6594L76.0413 38.1372C79.1561 39.0978 81.8071 40.3116 83.6573 41.7867L83.969 41.3957ZM76.1887 37.6594C71.9075 36.3392 66.7122 35.4779 61.351 35.0864L61.3145 35.5851C66.6498 35.9746 71.8059 36.8311 76.0413 38.1372L76.1887 37.6594ZM61.351 35.0864C55.9871 34.6948 50.4323 34.7718 45.4258 35.3401L45.4822 35.8369C50.4548 35.2724 55.9784 35.1955 61.3145 35.5851L61.351 35.0864ZM45.4258 35.3401C40.4321 35.907 35.9294 36.9687 32.7034 38.5794L32.9268 39.0267C36.0774 37.4536 40.5138 36.4009 45.4822 35.8369L45.4258 35.3401ZM32.7034 38.5794L32.5088 38.6766L32.7321 39.1239L32.9268 39.0267L32.7034 38.5794ZM32.3807 38.8294L32.3191 39.0381L32.7987 39.1796L32.8602 38.971L32.3807 38.8294ZM32.3191 39.0381C24.8473 64.3491 22.5706 99.9026 22.1531 129.072L22.6531 129.079C23.0705 99.9138 25.3477 64.4199 32.7987 39.1796L32.3191 39.0381ZM22.1531 129.072C21.9442 143.668 22.2008 156.686 22.5096 166.055L23.0093 166.039C22.7007 156.675 22.4443 143.665 22.6531 129.079L22.1531 129.072ZM22.5096 166.055C22.664 170.74 22.8315 174.514 22.9604 177.116L23.4598 177.091C23.331 174.491 23.1636 170.721 23.0093 166.039L22.5096 166.055ZM22.9604 177.116C23.0249 178.418 23.0797 179.426 23.1184 180.11L23.6176 180.082C23.579 179.399 23.5242 178.392 23.4598 177.091L22.9604 177.116ZM23.1184 180.11C23.1378 180.452 23.1531 180.713 23.1636 180.888L23.6627 180.858C23.6523 180.683 23.637 180.423 23.6176 180.082L23.1184 180.11ZM23.1637 180.888L23.1757 181.086L23.6748 181.056L23.6627 180.858L23.1637 180.888ZM23.1757 181.087L23.1788 181.137L23.6778 181.106L23.6747 181.056L23.1757 181.087ZM23.1788 181.137L23.1796 181.15L23.6786 181.118L23.6778 181.106L23.1788 181.137ZM23.1796 181.15L23.1798 181.153L23.6788 181.121L23.6786 181.118L23.1796 181.15ZM23.1798 181.153C23.1798 181.153 23.1798 181.153 23.1798 181.153C23.1798 181.153 23.1799 181.154 23.1799 181.155C23.1801 181.156 23.1802 181.159 23.1805 181.162C23.1811 181.168 23.1823 181.178 23.1849 181.19C23.1904 181.216 23.2018 181.248 23.2249 181.281C23.2702 181.346 23.3305 181.368 23.3526 181.375C23.377 181.383 23.397 181.385 23.4036 181.386C23.4124 181.387 23.4195 181.387 23.423 181.387C23.4344 181.388 23.4451 181.387 23.4473 181.387C23.4568 181.387 23.4732 181.386 23.5013 181.384C23.5589 181.381 23.6734 181.373 23.9015 181.359L23.87 180.86C23.6417 180.874 23.5281 180.882 23.4715 180.885C23.4426 180.887 23.4304 180.887 23.4257 180.888C23.4207 180.888 23.4279 180.887 23.4374 180.888C23.4405 180.888 23.4473 180.888 23.4558 180.889C23.4622 180.889 23.482 180.892 23.5062 180.899C23.5282 180.907 23.5885 180.929 23.6338 180.993C23.6799 181.059 23.6793 181.129 23.6789 181.122L23.1798 181.153ZM23.87 180.86L23.4136 180.889L23.4451 181.388L23.9015 181.359L23.87 180.86ZM23.1801 181.158L23.1807 181.166L23.6792 181.127L23.6786 181.119L23.1801 181.158ZM23.1807 181.166L29.2081 257.369L29.7065 257.329L23.6792 181.127L23.1807 181.166ZM29.4752 257.1C29.2458 257.083 28.9535 257.063 28.6063 257.041L28.5744 257.54C28.9202 257.562 29.2111 257.582 29.4394 257.598L29.4752 257.1ZM28.6064 257.041C27.6869 256.982 26.3812 256.908 24.8338 256.849L24.8147 257.349C26.3571 257.408 27.6585 257.481 28.5744 257.54L28.6064 257.041ZM24.8338 256.849C21.7421 256.731 17.6721 256.67 13.7855 256.904L13.8155 257.403C17.679 257.171 21.7309 257.231 24.8147 257.349L24.8338 256.849ZM13.7855 256.904C9.92909 257.135 6.14505 257.661 3.69167 258.769L3.89753 259.225C6.25981 258.158 9.96204 257.634 13.8155 257.403L13.7855 256.904ZM3.69168 258.769C2.47 259.321 1.43767 260.08 0.986474 261.155L1.44752 261.348C1.8258 260.447 2.71797 259.758 3.89753 259.225L3.69168 258.769ZM0.986475 261.155C0.513982 262.281 0.767533 263.524 1.61057 264.81L2.02874 264.536C1.23869 263.33 1.06228 262.266 1.44752 261.348L0.986475 261.155ZM1.61057 264.81C2.92088 266.809 5.04823 268.03 7.3941 268.762L7.54301 268.284C5.25791 267.571 3.25186 266.402 2.02874 264.536L1.61057 264.81ZM7.39409 268.762C9.74354 269.495 12.3864 269.761 14.8406 269.8L14.8485 269.3C12.4195 269.262 9.82927 268.998 7.54302 268.284L7.39409 268.762ZM14.8406 269.8C17.3003 269.839 19.6043 269.649 21.2906 269.45L21.232 268.954C19.56 269.151 17.2794 269.339 14.8485 269.3L14.8406 269.8ZM21.2906 269.45C22.1348 269.351 22.8266 269.248 23.3088 269.171L23.2295 268.677C22.7533 268.754 22.0684 268.855 21.232 268.954L21.2906 269.45ZM23.3088 269.171C23.55 269.132 23.7389 269.1 23.8683 269.077L23.7805 268.584C23.6537 268.607 23.4677 268.639 23.2296 268.677L23.3088 269.171ZM23.8686 269.077L23.9245 269.067L23.8361 268.574L23.7802 268.584L23.8686 269.077ZM23.9254 269.066L24.0163 269.05L23.9261 268.558L23.8352 268.575L23.9254 269.066ZM24.0175 269.05L24.0559 269.042L23.9632 268.551L23.9249 268.558L24.0175 269.05ZM24.0562 269.042L24.0663 269.04L23.9731 268.549L23.9629 268.551L24.0562 269.042ZM24.0684 269.04L24.0712 269.039L23.9737 268.549L23.971 268.549L24.0684 269.04ZM24.0691 269.04L24.0699 269.04L23.9766 268.548L23.9758 268.549L24.0691 269.04ZM24.0547 269.042C24.0548 269.042 24.0558 269.042 24.0568 269.042C24.0579 269.042 24.0609 269.041 24.0629 269.041C24.068 269.04 24.0763 269.039 24.0864 269.036C24.1076 269.03 24.1369 269.02 24.1671 268.998C24.2314 268.953 24.2553 268.893 24.264 268.861C24.2723 268.832 24.273 268.808 24.2732 268.799C24.2735 268.789 24.2729 268.78 24.2726 268.776C24.272 268.767 24.2711 268.761 24.2708 268.759C24.2704 268.756 24.27 268.754 24.2698 268.752C24.2692 268.748 24.2683 268.744 24.2677 268.74C24.2661 268.732 24.263 268.716 24.2571 268.685C24.2453 268.624 24.2214 268.501 24.1738 268.255L23.683 268.351C23.7306 268.596 23.7544 268.719 23.7662 268.78C23.7721 268.811 23.7749 268.825 23.7762 268.832C23.777 268.837 23.7768 268.836 23.7765 268.834C23.7763 268.833 23.776 268.831 23.7757 268.828C23.7754 268.827 23.7745 268.82 23.7739 268.812C23.7736 268.808 23.7731 268.799 23.7733 268.788C23.7735 268.78 23.7743 268.756 23.7825 268.727C23.7913 268.695 23.8151 268.635 23.8794 268.59C23.9096 268.568 23.9389 268.558 23.9601 268.552C23.9702 268.549 23.9786 268.548 23.9836 268.547C23.9856 268.547 23.9886 268.546 23.9897 268.546C23.9907 268.546 23.9917 268.546 23.9918 268.546L24.0547 269.042ZM23.683 268.351L23.7782 268.842L24.2691 268.746L24.1738 268.255L23.683 268.351ZM24.0712 269.039L24.1361 269.027L24.0411 268.536L23.9761 268.548L24.0712 269.039ZM24.1984 269.006L24.2578 268.977L24.0382 268.528L23.9788 268.557L24.1984 269.006ZM24.2578 268.977L63.3009 249.889L63.0813 249.44L24.0382 268.528L24.2578 268.977ZM63.3009 249.889L63.5813 249.752L63.3617 249.303L63.0813 249.44L63.3009 249.889ZM63.7215 249.527V249.215H63.2215V249.527H63.7215ZM63.7215 249.215V209.738H63.2215V249.215H63.7215ZM63.4715 209.488H62.8702V209.988H63.4715V209.488ZM219.666 171.47L62.8113 209.496L62.9291 209.981L219.784 171.956L219.666 171.47ZM271.909 225.529C271.628 225.301 271.382 225.034 271.175 224.72L270.758 224.995C270.993 225.353 271.275 225.658 271.593 225.917L271.909 225.529ZM274.279 226.544C273.315 226.357 272.517 226.024 271.909 225.53L271.593 225.917C272.282 226.478 273.164 226.837 274.184 227.035L274.279 226.544ZM281.184 226.141C278.694 226.676 276.224 226.922 274.279 226.544L274.184 227.035C276.228 227.432 278.778 227.17 281.289 226.63L281.184 226.141ZM287.879 224.137C286.074 224.808 283.657 225.609 281.184 226.141L281.289 226.63C283.794 226.091 286.236 225.282 288.053 224.606L287.879 224.137ZM288.115 224.049C288.037 224.078 287.959 224.108 287.879 224.137L288.053 224.606C288.133 224.576 288.213 224.547 288.291 224.517L288.115 224.049ZM286.576 224.614C287.172 224.585 287.72 224.558 288.215 224.533L288.19 224.034C287.696 224.059 287.148 224.086 286.552 224.114L286.576 224.614ZM275.395 225.021C279.767 224.912 283.718 224.749 286.576 224.614L286.552 224.114C283.697 224.25 279.75 224.413 275.383 224.521L275.395 225.021ZM270.97 225.108C272.475 225.086 273.959 225.057 275.395 225.021L275.383 224.521C273.948 224.557 272.466 224.587 270.963 224.608L270.97 225.108Z" fill="black"/>
<mask id="path-3-inside-1_88_31" fill="white">
<path fill-rule="evenodd" clip-rule="evenodd" d="M113.294 221.885C156.899 221.885 220.011 192.199 220.011 140.329C220.011 88.4578 165.575 34.0447 121.97 34.0447C80.4363 34.0447 56.6262 51.362 37.2132 117.674C34.2889 116.015 31.3645 115.026 28.9174 115.026C20.412 115.026 10.9142 126.978 10.9142 137.442C10.9142 147.905 25.1839 159.858 33.6893 159.858C33.9377 159.858 34.1869 159.848 34.4367 159.828C40.6236 208.71 76.6473 221.885 113.294 221.885Z"/>
</mask>
<path fill-rule="evenodd" clip-rule="evenodd" d="M113.294 221.885C156.899 221.885 220.011 192.199 220.011 140.329C220.011 88.4578 165.575 34.0447 121.97 34.0447C80.4363 34.0447 56.6262 51.362 37.2132 117.674C34.2889 116.015 31.3645 115.026 28.9174 115.026C20.412 115.026 10.9142 126.978 10.9142 137.442C10.9142 147.905 25.1839 159.858 33.6893 159.858C33.9377 159.858 34.1869 159.848 34.4367 159.828C40.6236 208.71 76.6473 221.885 113.294 221.885Z" fill="#FFE2D2"/>
<path d="M37.2132 117.674L36.4732 118.979L38.1207 119.913L38.6528 118.095L37.2132 117.674ZM34.4367 159.828L35.9249 159.639L35.7449 158.218L34.3167 158.333L34.4367 159.828ZM218.511 140.329C218.511 165.582 203.161 185.562 182.182 199.304C161.198 213.049 134.804 220.385 113.294 220.385V223.385C135.388 223.385 162.353 215.879 183.826 201.813C205.306 187.744 221.511 166.946 221.511 140.329H218.511ZM121.97 35.5447C143.206 35.5447 167.35 48.8437 186.254 68.7675C205.14 88.6714 218.511 114.891 218.511 140.329H221.511C221.511 113.895 207.664 86.973 188.431 66.7026C169.216 46.4522 144.339 32.5447 121.97 32.5447V35.5447ZM38.6528 118.095C48.3365 85.0171 59.0481 64.429 72.3177 52.0908C85.5146 39.8202 101.426 35.5447 121.97 35.5447V32.5447C100.98 32.5447 84.2197 36.9277 70.2749 49.8938C56.4029 62.7921 45.5029 84.0186 35.7737 117.252L38.6528 118.095ZM28.9174 116.526C31.0024 116.526 33.6641 117.385 36.4732 118.979L37.9533 116.369C34.9137 114.645 31.7267 113.526 28.9174 113.526V116.526ZM12.4142 137.442C12.4142 132.628 14.6188 127.345 17.8975 123.247C21.2095 119.108 25.3252 116.526 28.9174 116.526V113.526C24.0042 113.526 19.1183 116.92 15.5551 121.373C11.9585 125.867 9.41418 131.792 9.41418 137.442H12.4142ZM33.6893 158.358C31.8844 158.358 29.6372 157.714 27.2205 156.489C24.823 155.274 22.3554 153.537 20.1324 151.474C15.6206 147.288 12.4142 142.056 12.4142 137.442H9.41418C9.41418 143.291 13.3427 149.267 18.092 153.673C20.4996 155.907 23.1943 157.812 25.8644 159.165C28.5154 160.508 31.2415 161.358 33.6893 161.358V158.358ZM34.3167 158.333C34.1058 158.35 33.8966 158.358 33.6893 158.358V161.358C33.9788 161.358 34.268 161.346 34.5567 161.323L34.3167 158.333ZM113.294 220.385C95.1191 220.385 77.2832 217.113 63.2646 207.932C49.3121 198.795 38.9694 183.694 35.9249 159.639L32.9486 160.016C36.0909 184.844 46.8535 200.771 61.6211 210.442C76.3226 220.07 94.8218 223.385 113.294 223.385V220.385Z" fill="black" mask="url(#path-3-inside-1_88_31)"/>
<path d="M85.7453 104.63C85.5419 113.013 81.9624 120.005 79.0882 119.935C76.214 119.865 74.0489 113.013 74.2523 104.63C74.4557 96.2467 78.0351 89.2548 80.9094 89.3246C83.7836 89.3943 85.9487 96.2467 85.7453 104.63Z" fill="#1E1E1E"/>
<path d="M167.821 104.63C167.618 113.013 165.123 119.752 162.249 119.682C159.375 119.613 156.473 112.76 156.676 104.377C156.88 95.9941 159.375 89.2548 162.249 89.3246C165.123 89.3943 168.025 96.2467 167.821 104.63Z" fill="#1E1E1E"/>
<path fill-rule="evenodd" clip-rule="evenodd" d="M113.269 185.851C112.205 186.334 111.02 186.444 109.704 186.345C108.155 186.272 106.84 185.833 105.704 184.992C104.573 184.155 103.649 182.943 102.841 181.377C101.851 179.459 101.011 176.958 100.175 173.859C100.144 173.78 100.118 173.715 100.098 173.663C100.082 173.621 100.069 173.589 100.061 173.567L100.051 173.541L100.048 173.534L100.048 173.533L100.047 173.532C100.047 173.532 100.047 173.532 100.084 173.518C99.5929 171.672 99.1019 169.619 98.5812 167.356L99.5558 167.131C100.105 169.52 100.618 171.653 101.126 173.544C101.14 173.579 101.154 173.615 101.17 173.654C101.293 173.959 101.474 174.397 101.705 174.926C102.166 175.983 102.824 177.398 103.613 178.83C104.404 180.266 105.316 181.703 106.281 182.816C107.262 183.947 108.228 184.661 109.113 184.801C110.092 184.957 110.913 184.842 111.654 184.47C112.404 184.093 113.112 183.431 113.823 182.42C115.254 180.384 116.603 177.071 118.305 172.288L118.351 172.304C118.528 171.362 118.705 170.357 118.883 169.284L119.869 169.447C118.717 176.415 117.567 180.725 116.024 183.244C115.241 184.52 114.342 185.363 113.269 185.851ZM116.698 179.195C116.012 180.734 115.341 182 114.641 182.996C114.042 183.847 113.408 184.522 112.71 185.003C112.759 184.983 112.808 184.962 112.856 184.94C113.707 184.554 114.468 183.869 115.171 182.721C115.718 181.829 116.221 180.674 116.698 179.195ZM104.017 181.45C104.565 182.416 105.15 183.183 105.795 183.773C105.704 183.674 105.614 183.574 105.526 183.472C104.999 182.865 104.493 182.175 104.017 181.45Z" fill="black"/>
<path d="M109.704 186.345L109.719 186.145L109.714 186.145L109.704 186.345ZM113.269 185.851L113.187 185.668L113.187 185.668L113.269 185.851ZM105.704 184.992L105.585 185.153L105.585 185.153L105.704 184.992ZM102.841 181.377L103.019 181.286L103.019 181.286L102.841 181.377ZM100.175 173.859L100.368 173.807L100.365 173.796L100.361 173.785L100.175 173.859ZM100.098 173.663L100.284 173.591L100.284 173.591L100.098 173.663ZM100.061 173.567L99.8737 173.638L99.8738 173.638L100.061 173.567ZM100.051 173.541L99.8639 173.612L99.864 173.613L100.051 173.541ZM100.048 173.534L99.8613 173.605L99.8614 173.605L100.048 173.534ZM100.048 173.533L99.8605 173.603L99.8606 173.603L100.048 173.533ZM100.047 173.532L99.8602 173.603L99.8603 173.603L100.047 173.532ZM100.084 173.518L100.155 173.705L100.323 173.641L100.277 173.467L100.084 173.518ZM98.5812 167.356L98.5364 167.161L98.3415 167.205L98.3863 167.4L98.5812 167.356ZM99.5558 167.131L99.7507 167.087L99.7058 166.892L99.5109 166.936L99.5558 167.131ZM101.126 173.544L100.933 173.596L100.936 173.608L100.94 173.619L101.126 173.544ZM101.17 173.654L101.355 173.579L101.355 173.579L101.17 173.654ZM101.705 174.926L101.888 174.846L101.888 174.846L101.705 174.926ZM103.613 178.83L103.788 178.734L103.788 178.734L103.613 178.83ZM106.281 182.816L106.432 182.685L106.432 182.685L106.281 182.816ZM111.654 184.47L111.744 184.648L111.744 184.648L111.654 184.47ZM113.823 182.42L113.986 182.536L113.986 182.536L113.823 182.42ZM118.305 172.288L118.372 172.099L118.184 172.032L118.117 172.22L118.305 172.288ZM118.351 172.304L118.284 172.492L118.504 172.571L118.548 172.341L118.351 172.304ZM118.883 169.284L118.915 169.087L118.718 169.054L118.685 169.252L118.883 169.284ZM119.869 169.447L120.067 169.48L120.099 169.283L119.902 169.25L119.869 169.447ZM116.024 183.244L115.853 183.139L115.853 183.139L116.024 183.244ZM116.698 179.195L116.889 179.257L116.516 179.114L116.698 179.195ZM114.641 182.996L114.804 183.111L114.804 183.111L114.641 182.996ZM112.71 185.003L112.596 184.839L112.785 185.188L112.71 185.003ZM112.856 184.94L112.773 184.758L112.773 184.758L112.856 184.94ZM115.171 182.721L115.001 182.617L115.001 182.617L115.171 182.721ZM105.795 183.773L105.66 183.92L105.942 183.637L105.795 183.773ZM104.017 181.45L104.184 181.34L103.843 181.549L104.017 181.45ZM105.526 183.472L105.677 183.341L105.677 183.341L105.526 183.472ZM109.689 186.544C111.024 186.644 112.246 186.535 113.352 186.033L113.187 185.668C112.164 186.133 111.016 186.243 109.719 186.145L109.689 186.544ZM105.585 185.153C106.756 186.02 108.111 186.471 109.695 186.544L109.714 186.145C108.199 186.074 106.923 185.646 105.823 184.831L105.585 185.153ZM102.663 181.469C103.48 183.052 104.421 184.292 105.585 185.153L105.823 184.831C104.724 184.018 103.818 182.835 103.019 181.286L102.663 181.469ZM99.9818 173.911C100.819 177.014 101.663 179.531 102.663 181.469L103.019 181.286C102.039 179.386 101.203 176.903 100.368 173.807L99.9818 173.911ZM100.361 173.785C100.33 173.707 100.304 173.642 100.284 173.591L99.9116 173.736C99.9317 173.788 99.9576 173.854 99.9891 173.933L100.361 173.785ZM100.284 173.591C100.268 173.549 100.256 173.517 100.247 173.495L99.8738 173.638C99.8824 173.661 99.8951 173.693 99.9116 173.736L100.284 173.591ZM100.247 173.495L100.238 173.47L99.864 173.613L99.8737 173.638L100.247 173.495ZM100.238 173.47L100.235 173.463L99.8614 173.605L99.8639 173.612L100.238 173.47ZM100.235 173.464L100.235 173.462L99.8606 173.603L99.8613 173.605L100.235 173.464ZM100.235 173.462L100.235 173.461L99.8603 173.603L99.8605 173.603L100.235 173.462ZM100.235 173.462C100.233 173.457 100.253 173.502 100.246 173.558C100.238 173.617 100.207 173.655 100.19 173.672C100.175 173.688 100.16 173.698 100.154 173.701C100.147 173.705 100.142 173.708 100.139 173.71C100.133 173.713 100.129 173.715 100.128 173.715C100.126 173.716 100.124 173.717 100.124 173.717C100.122 173.718 100.121 173.718 100.124 173.717C100.128 173.715 100.136 173.712 100.155 173.705L100.013 173.331C99.9948 173.338 99.9852 173.342 99.9801 173.344C99.9781 173.344 99.975 173.346 99.9722 173.347C99.9713 173.347 99.9697 173.348 99.9678 173.349C99.9664 173.349 99.9618 173.351 99.956 173.354C99.9532 173.356 99.9475 173.359 99.9407 173.363C99.9353 173.366 99.9203 173.376 99.9044 173.392C99.8881 173.409 99.8568 173.447 99.8491 173.506C99.8418 173.563 99.8621 173.607 99.8602 173.603L100.235 173.462ZM98.3863 167.4C98.9071 169.665 99.3988 171.72 99.8905 173.57L100.277 173.467C99.7871 171.624 99.2966 169.574 98.7761 167.311L98.3863 167.4ZM99.5109 166.936L98.5364 167.161L98.626 167.55L99.6006 167.326L99.5109 166.936ZM101.319 173.492C100.812 171.605 100.3 169.474 99.7507 167.087L99.3608 167.176C99.9105 169.566 100.423 171.702 100.933 173.596L101.319 173.492ZM100.94 173.619C100.954 173.653 100.969 173.69 100.984 173.728L101.355 173.579C101.34 173.54 101.325 173.504 101.312 173.47L100.94 173.619ZM100.984 173.728C101.108 174.035 101.29 174.475 101.521 175.006L101.888 174.846C101.658 174.319 101.478 173.883 101.355 173.579L100.984 173.728ZM101.521 175.006C101.984 176.067 102.645 177.487 103.438 178.927L103.788 178.734C103.003 177.308 102.348 175.9 101.888 174.846L101.521 175.006ZM103.438 178.927C104.231 180.368 105.151 181.819 106.13 182.947L106.432 182.685C105.48 181.587 104.576 180.164 103.788 178.734L103.438 178.927ZM106.13 182.947C107.118 184.086 108.124 184.847 109.081 184.999L109.144 184.604C108.332 184.475 107.406 183.808 106.432 182.685L106.13 182.947ZM109.081 184.999C110.096 185.16 110.96 185.042 111.744 184.648L111.564 184.291C110.866 184.642 110.088 184.754 109.144 184.604L109.081 184.999ZM111.744 184.648C112.533 184.252 113.264 183.562 113.986 182.536L113.659 182.305C112.96 183.299 112.275 183.934 111.564 184.291L111.744 184.648ZM113.986 182.536C115.436 180.473 116.793 177.134 118.494 172.355L118.117 172.22C116.413 177.009 115.073 180.295 113.659 182.305L113.986 182.536ZM118.238 172.476L118.284 172.492L118.418 172.115L118.372 172.099L118.238 172.476ZM118.685 169.252C118.508 170.323 118.331 171.327 118.154 172.267L118.548 172.341C118.725 171.398 118.902 170.391 119.08 169.317L118.685 169.252ZM119.902 169.25L118.915 169.087L118.85 169.481L119.837 169.645L119.902 169.25ZM116.194 183.348C117.761 180.792 118.914 176.444 120.067 169.48L119.672 169.415C118.519 176.386 117.374 180.658 115.853 183.139L116.194 183.348ZM113.352 186.033C114.469 185.525 115.396 184.65 116.194 183.348L115.853 183.139C115.087 184.39 114.215 185.201 113.187 185.668L113.352 186.033ZM116.516 179.114C115.832 180.647 115.167 181.9 114.477 182.881L114.804 183.111C115.515 182.1 116.192 180.822 116.881 179.277L116.516 179.114ZM114.477 182.881C113.887 183.719 113.27 184.375 112.596 184.839L112.823 185.168C113.547 184.669 114.196 183.975 114.804 183.111L114.477 182.881ZM112.773 184.758C112.727 184.779 112.681 184.799 112.634 184.818L112.785 185.188C112.837 185.167 112.888 185.145 112.939 185.122L112.773 184.758ZM115.001 182.617C114.313 183.739 113.58 184.392 112.773 184.758L112.939 185.122C113.834 184.716 114.622 183.999 115.342 182.826L115.001 182.617ZM116.508 179.134C116.034 180.603 115.536 181.742 115.001 182.617L115.342 182.826C115.9 181.915 116.408 180.744 116.889 179.257L116.508 179.134ZM105.93 183.625C105.304 183.053 104.731 182.304 104.191 181.352L103.843 181.549C104.398 182.527 104.996 183.313 105.66 183.92L105.93 183.625ZM105.942 183.637C105.853 183.54 105.764 183.441 105.677 183.341L105.375 183.603C105.465 183.706 105.556 183.808 105.648 183.908L105.942 183.637ZM105.677 183.341C105.158 182.742 104.657 182.06 104.184 181.34L103.85 181.56C104.33 182.29 104.841 182.987 105.375 183.603L105.677 183.341Z" fill="black"/>
<path fill-rule="evenodd" clip-rule="evenodd" d="M189.046 131.092C197.387 120.557 202.96 107.431 202.96 96.9474C202.96 86.5466 197.463 77.5972 189.217 71.2151C180.966 64.8286 170.028 61.0734 159.347 61.0734C150.257 61.0734 142.674 66.4723 136.98 74.4859L137.125 74.6828C136.93 74.827 136.736 74.9694 136.543 75.1101C135.884 76.0699 135.251 77.065 134.645 78.0909C128.771 88.033 125.573 100.654 125.573 111.263C125.573 121.851 128.758 131.371 134.548 138.226C140.324 145.063 148.737 149.306 159.347 149.306C169.791 149.306 180.687 141.649 189.046 131.092ZM135.818 74.4014C141.661 65.963 149.626 60.0734 159.347 60.0734C181.149 60.0734 203.96 75.3845 203.96 96.9474C203.96 118.51 181.149 150.306 159.347 150.306C137.545 150.306 124.573 132.826 124.573 111.263C124.573 109.497 124.66 107.676 124.832 105.822C122.411 104.934 120.51 104.433 118.625 104.301C116.703 104.165 114.766 104.411 112.283 105.059C111.915 126.377 90.7719 151.13 69.9915 151.13C49.0276 151.13 39.9417 134.18 39.9417 112.737C39.9417 91.2943 61.2742 66.1026 82.2381 66.1026C91.7897 66.1026 98.8755 69.6211 103.76 75.48C110.041 80.1338 114.932 82.0825 119.77 81.7985C124.62 81.5136 129.522 78.9809 135.818 74.4014ZM105.658 78.0378C110.899 81.5163 115.343 83.0601 119.828 82.7967C124.404 82.5281 128.94 80.3812 134.328 76.6815C129.202 84.988 125.971 95.2769 124.935 104.796C122.583 103.945 120.647 103.44 118.695 103.303C116.699 103.163 114.717 103.409 112.287 104.026C112.224 93.8896 110.113 84.7844 105.658 78.0378ZM103.067 76.2113C103.499 76.7338 103.912 77.2754 104.308 77.8351C109.039 84.5247 111.288 93.8935 111.288 104.495C111.288 114.911 106.09 126.343 98.2527 135.191C90.4089 144.045 80.0855 150.13 69.9915 150.13C59.8207 150.13 52.6185 146.039 47.9216 139.397C43.1909 132.708 40.9417 123.339 40.9417 112.737C40.9417 102.322 46.1392 90.8894 53.977 82.0419C61.8207 73.1876 72.1442 67.1026 82.2381 67.1026C91.2297 67.1026 97.9011 70.2996 102.573 75.6301L102.471 75.7634C102.671 75.9152 102.87 76.0645 103.067 76.2113Z" fill="#B4A050"/>
<path d="M114.941 122.601L120.291 144.233C120.525 145.179 119.809 146.093 118.835 146.093H108.218C107.246 146.093 106.531 145.183 106.761 144.238L112.028 122.606C112.399 121.082 114.565 121.078 114.941 122.601Z" fill="#F6C3AE" stroke="#F6C3AE" stroke-width="3"/>
</svg>
