<svg width="182" height="75" viewBox="0 0 182 75" fill="none" xmlns="http://www.w3.org/2000/svg">
<path d="M18.2813 11.1051C18.2002 10.0921 17.8204 9.30198 17.1416 8.73469C16.473 8.1674 15.455 7.88376 14.0874 7.88376C13.2162 7.88376 12.502 7.99012 11.9449 8.20286C11.3978 8.40546 10.9926 8.68404 10.7293 9.03859C10.4659 9.39315 10.3291 9.79836 10.319 10.2542C10.2987 10.629 10.3646 10.9684 10.5165 11.2723C10.6786 11.5661 10.9319 11.8345 11.2763 12.0776C11.6207 12.3106 12.0614 12.5234 12.5983 12.7158C13.1352 12.9083 13.7734 13.0805 14.5129 13.2325L17.0657 13.7795C18.7878 14.1442 20.2617 14.6254 21.4875 15.223C22.7132 15.8207 23.7161 16.5248 24.4961 17.3352C25.2761 18.1355 25.8485 19.037 26.2132 20.0399C26.588 21.0428 26.7805 22.1369 26.7906 23.3221C26.7805 25.3684 26.2689 27.1006 25.2559 28.5189C24.2429 29.9371 22.7943 31.0159 20.9101 31.7554C19.036 32.4949 16.782 32.8647 14.1482 32.8647C11.4434 32.8647 9.08311 32.4645 7.06721 31.6643C5.06145 30.864 3.50141 29.6332 2.38709 27.9718C1.2829 26.3004 0.725747 24.1629 0.715617 21.5594H8.73869C8.78934 22.5117 9.0274 23.312 9.45286 23.9603C9.87833 24.6086 10.476 25.0999 11.2459 25.4342C12.0259 25.7685 12.9528 25.9357 14.0266 25.9357C14.9282 25.9357 15.6829 25.8242 16.2907 25.6014C16.8985 25.3785 17.3594 25.0695 17.6735 24.6745C17.9875 24.2794 18.1496 23.8286 18.1597 23.3221C18.1496 22.846 17.9926 22.4306 17.6887 22.0761C17.3949 21.7114 16.9086 21.3872 16.2299 21.1036C15.5512 20.8098 14.6344 20.5363 13.4796 20.2831L10.3798 19.6145C7.62437 19.0168 5.45146 18.019 3.86103 16.621C2.28072 15.2129 1.49564 13.2933 1.50577 10.862C1.49564 8.88664 2.0224 7.15945 3.08607 5.68045C4.15986 4.19132 5.64393 3.03142 7.53827 2.20075C9.44273 1.37008 11.6258 0.954743 14.0874 0.954743C16.5997 0.954743 18.7726 1.37514 20.6061 2.21595C22.4397 3.05675 23.8529 4.24197 24.8456 5.77163C25.8485 7.29115 26.355 9.06899 26.3651 11.1051H18.2813ZM28.728 1.38021H38.149L44.2271 14.0226H44.4702L50.5483 1.38021H59.9693L48.5425 22.7143V32.5H40.1548V22.7143L28.728 1.38021ZM74.6973 32.5H62.7235V1.38021H74.5757C77.7769 1.38021 80.5424 2.00321 82.8723 3.24922C85.2124 4.4851 87.0155 6.268 88.2818 8.59793C89.5582 10.9177 90.1964 13.6985 90.1964 16.9401C90.1964 20.1817 89.5633 22.9675 88.297 25.2975C87.0307 27.6173 85.2377 29.4002 82.9179 30.6462C80.5981 31.8821 77.8579 32.5 74.6973 32.5ZM71.172 25.3279H74.3934C75.9332 25.3279 77.245 25.0797 78.3289 24.5833C79.423 24.0869 80.2537 23.2309 80.821 22.0153C81.3984 20.7997 81.6871 19.108 81.6871 16.9401C81.6871 14.7723 81.3933 13.0805 80.8058 11.8649C80.2284 10.6493 79.3774 9.79329 78.253 9.29691C77.1387 8.80054 75.7711 8.55235 74.1503 8.55235H71.172V25.3279ZM121.031 1.38021V32.5H113.981L102.736 16.15H102.554V32.5H94.1054V1.38021H101.278L112.34 17.6695H112.583V1.38021H121.031ZM125.028 32.5V1.38021H147.456V8.18766H133.476V13.5364H146.301V20.3438H133.476V25.6925H147.395V32.5H125.028ZM150.369 1.38021H159.79L165.869 14.0226H166.112L172.19 1.38021H181.611L170.184 22.7143V32.5H161.796V22.7143L150.369 1.38021Z" fill="#F0743E"/>
<path d="M1.50577 74.5V43.3802H14.9991C17.3696 43.3802 19.3601 43.6993 20.9708 44.3375C22.5917 44.9757 23.8123 45.8773 24.6329 47.0423C25.4636 48.2072 25.8789 49.5799 25.8789 51.1602C25.8789 52.3049 25.6256 53.3483 25.1191 54.2904C24.6227 55.2325 23.9238 56.0226 23.0222 56.6608C22.1206 57.2889 21.0671 57.7245 19.8616 57.9676V58.2715C21.1988 58.3222 22.4144 58.6615 23.5084 59.2896C24.6025 59.9075 25.4737 60.7635 26.122 61.8576C26.7703 62.9415 27.0945 64.2179 27.0945 65.6868C27.0945 67.3886 26.6488 68.9031 25.7573 70.2301C24.876 71.5572 23.6199 72.6006 21.9889 73.3604C20.358 74.1201 18.413 74.5 16.154 74.5H1.50577ZM9.9543 67.7533H13.9051C15.3233 67.7533 16.3869 67.4899 17.0961 66.9632C17.8052 66.4263 18.1597 65.6361 18.1597 64.5927C18.1597 63.8634 17.9926 63.2454 17.6583 62.7389C17.324 62.2324 16.8479 61.8475 16.2299 61.5841C15.6221 61.3207 14.8877 61.189 14.0266 61.189H9.9543V67.7533ZM9.9543 55.9618H13.4188C14.1583 55.9618 14.8117 55.8453 15.379 55.6124C15.9463 55.3794 16.3869 55.0451 16.701 54.6095C17.0251 54.1637 17.1872 53.6218 17.1872 52.9836C17.1872 52.0212 16.8428 51.2868 16.154 50.7803C15.4651 50.2636 14.5939 50.0053 13.5404 50.0053H9.9543V55.9618ZM30.088 74.5V43.3802H43.5205C45.8302 43.3802 47.8512 43.8006 49.5834 44.6414C51.3157 45.4822 52.663 46.6928 53.6253 48.2731C54.5877 49.8534 55.0689 51.7477 55.0689 53.9561C55.0689 56.1847 54.5725 58.0638 53.5798 59.5935C52.5971 61.1232 51.2144 62.278 49.4315 63.058C47.6587 63.838 45.5871 64.228 43.2166 64.228H35.1935V57.6637H41.5148C42.5075 57.6637 43.3534 57.5421 44.0524 57.299C44.7615 57.0458 45.3034 56.6456 45.6782 56.0986C46.0632 55.5516 46.2557 54.8374 46.2557 53.9561C46.2557 53.0646 46.0632 52.3403 45.6782 51.7832C45.3034 51.2159 44.7615 50.8005 44.0524 50.5372C43.3534 50.2636 42.5075 50.1269 41.5148 50.1269H38.5365V74.5H30.088ZM48.3222 60.2165L56.1022 74.5H46.9243L39.3266 60.2165H48.3222ZM77.0867 43.3802H85.5353V63.3163C85.5353 65.6868 84.968 67.7381 83.8334 69.4704C82.709 71.1925 81.1388 72.5246 79.1229 73.4667C77.107 74.3987 74.7669 74.8647 72.1027 74.8647C69.4182 74.8647 67.068 74.3987 65.0521 73.4667C63.0362 72.5246 61.4661 71.1925 60.3416 69.4704C59.2273 67.7381 58.6701 65.6868 58.6701 63.3163V43.3802H67.1187V62.587C67.1187 63.5493 67.3314 64.4104 67.7569 65.1701C68.1823 65.9198 68.7699 66.5073 69.5195 66.9328C70.2793 67.3583 71.1403 67.571 72.1027 67.571C73.0752 67.571 73.9363 67.3583 74.6859 66.9328C75.4355 66.5073 76.0231 65.9198 76.4485 65.1701C76.874 64.4104 77.0867 63.5493 77.0867 62.587V43.3802ZM118.604 55.0501H110.034C109.973 54.341 109.811 53.6978 109.548 53.1203C109.294 52.5429 108.94 52.0465 108.484 51.6312C108.038 51.2057 107.496 50.8816 106.858 50.6587C106.22 50.4257 105.495 50.3092 104.685 50.3092C103.267 50.3092 102.066 50.6536 101.084 51.3425C100.111 52.0313 99.3718 53.019 98.8653 54.3056C98.3689 55.5921 98.1207 57.1369 98.1207 58.9401C98.1207 60.8446 98.374 62.4401 98.8805 63.7266C99.3971 65.003 100.142 65.9654 101.114 66.6137C102.087 67.2519 103.257 67.571 104.624 67.571C105.404 67.571 106.103 67.4747 106.721 67.2823C107.339 67.0797 107.876 66.791 108.332 66.4161C108.788 66.0413 109.157 65.5905 109.441 65.0638C109.735 64.5269 109.932 63.9241 110.034 63.2555L118.604 63.3163C118.503 64.6332 118.133 65.9755 117.495 67.3431C116.856 68.7005 115.95 69.9566 114.775 71.1115C113.61 72.2562 112.166 73.178 110.444 73.877C108.722 74.576 106.721 74.9255 104.442 74.9255C101.585 74.9255 99.0223 74.3126 96.7531 73.0868C94.4941 71.8611 92.7062 70.0579 91.3892 67.6774C90.0824 65.2968 89.4291 62.3844 89.4291 58.9401C89.4291 55.4756 90.0976 52.5581 91.4348 50.1877C92.772 47.8071 94.5752 46.009 96.8443 44.7934C99.1135 43.5676 101.646 42.9547 104.442 42.9547C106.407 42.9547 108.215 43.2232 109.867 43.7601C111.518 44.297 112.966 45.0821 114.212 46.1153C115.458 47.1385 116.461 48.3997 117.221 49.899C117.981 51.3982 118.442 53.1153 118.604 55.0501ZM122.437 74.5V43.3802H144.865V50.1877H130.885V55.5364H143.71V62.3438H130.885V67.6925H144.804V74.5H122.437Z" fill="black"/>
</svg>
