<svg width="460" height="91" viewBox="0 0 460 91" fill="none" xmlns="http://www.w3.org/2000/svg">
<path d="M2.28503 37.3935L3.56567 31.6307L9.80873 37.3935L19.2533 42.9962L33.02 48.4389L48.5475 51.0001L59.5928 54.3617L68.237 62.8458L74.32 80.6144L66.156 85.5768L59.5928 85.5768L55.5909 82.6954L48.5475 83.6559L42.6246 80.6144L36.7018 80.6144L31.4192 76.2923L26.6169 74.2113L20.3738 69.5691L17.1723 63.6462L12.53 61.2451L8.84827 55.6423L8.84827 51.0001L7.08741 47.3183L3.56567 42.9962L2.28503 37.3935Z" fill="#FEF9F5"/>
<path fill-rule="evenodd" clip-rule="evenodd" d="M51.2632 50.6082L51.5828 50.6488C61.6976 51.9489 68.8554 57.2976 71.2199 65.3069C73.2091 72.0649 75.5593 78.7856 75.8765 79.6925C75.8987 79.7559 75.9109 79.7909 75.9124 79.7955C75.9745 79.9483 75.9993 80.1108 75.9853 80.2732C75.9712 80.4357 75.9187 80.5947 75.8307 80.7408C75.7428 80.8869 75.6213 81.017 75.4735 81.1234C75.3257 81.2298 75.1547 81.3103 74.9707 81.36C74.9518 81.3651 74.9328 81.3698 74.9137 81.3743C73.7448 82.762 72.6334 83.7123 71.3792 84.4184C70.0643 85.1586 68.6292 85.6085 66.8949 86.0397C66.8145 86.121 66.7219 86.1935 66.6194 86.2551C66.4628 86.3493 66.2861 86.4164 66.0999 86.4524C59.5344 87.8704 56.1896 85.7523 54.8358 84.4744C54.0688 84.69 53.2796 84.8401 52.4803 84.9223C47.1923 85.4375 42.8189 82.8847 41.4296 81.9648C40.5236 82.0488 39.6114 82.0454 38.7105 81.9548C33.2725 81.3379 30.1851 77.6855 29.2309 76.3655C28.7323 76.2785 28.2405 76.1671 27.7581 76.0321C18.956 73.4324 16.2223 66.2954 15.6262 64.3333C15.5282 64.2872 15.4303 64.2414 15.3324 64.1956C14.7068 63.903 14.0841 63.6117 13.4787 63.2655C6.20643 59.1214 6.83279 51.6188 7.2144 49.338C-3.72673 40.9415 2.60711 30.2478 2.67394 30.1388C2.79178 29.9467 2.96729 29.7836 3.1824 29.6663C3.39752 29.5491 3.64446 29.4819 3.8978 29.4717C4.15115 29.4615 4.40174 29.5086 4.62377 29.6083C4.84581 29.7079 5.03126 29.8564 5.16104 30.0386C16.661 46.1563 40.9086 49.276 51.2625 50.6081L51.2632 50.6082ZM66.9107 84.4883C68.4203 84.0989 69.5899 83.7044 70.6434 83.1113C71.5715 82.5887 72.4346 81.8972 73.3581 80.8762C73.2784 80.7708 73.2188 80.655 73.1818 80.5328C73.1544 80.4606 70.5959 73.2216 68.451 65.9454C66.3436 58.7915 60.1793 54.2041 51.0977 53.0409L50.7804 53.0001C40.4733 51.6749 16.9035 48.6441 4.25799 33.3332C3.1731 36.5107 2.38791 42.7359 9.68038 47.9579C19.2369 54.7984 28.2279 57.0696 44.0271 56.6364C44.4034 56.6282 44.7652 56.7464 45.0337 56.9651C45.3021 57.1839 45.4553 57.4854 45.46 57.8041C45.4647 58.1227 45.3205 58.4326 45.0588 58.6662C44.797 58.8998 44.439 59.0381 44.0627 59.051C28.598 59.4676 19.309 57.3955 9.89519 51.2325C9.79672 53.9333 10.4051 58.5662 15.1059 61.2485C22.7884 65.6377 31.5483 66.1265 42.6626 62.7825C42.8404 62.7292 43.0281 62.7059 43.215 62.7139C43.402 62.7219 43.5845 62.761 43.7521 62.8291C43.9197 62.8971 44.0692 62.9928 44.192 63.1106C44.3148 63.2283 44.4085 63.3659 44.4678 63.5155C44.5271 63.6651 44.5507 63.8236 44.5375 63.9822C44.5242 64.1408 44.4742 64.2962 44.3904 64.4397C44.3066 64.5831 44.1906 64.7117 44.049 64.8182C43.9075 64.9247 43.7431 65.0069 43.5653 65.0602C34.3143 67.8369 26.2993 68.0644 19.2512 65.7751C20.5261 68.3139 23.2715 72.1214 28.7359 73.7303C37.2193 76.229 47.6864 68.5559 47.7896 68.4776C48.0646 68.2732 48.4189 68.1635 48.7807 68.1709C49.1425 68.1782 49.4846 68.3019 49.7376 68.517C49.9906 68.7321 50.1356 69.0224 50.143 69.3289C50.1504 69.6355 50.0198 69.9353 49.7776 70.1676C49.7369 70.2064 49.694 70.2435 49.6488 70.2786L49.6429 70.283C49.1788 70.6221 41.4108 76.2994 33.077 76.6174C34.3701 77.8427 36.3839 79.2415 39.1603 79.5493C43.3065 80.0103 48.0109 77.96 53.1416 73.4589C53.2702 73.3412 53.4243 73.2457 53.5953 73.1777C53.7662 73.1098 53.9506 73.0707 54.1379 73.0629C54.3252 73.055 54.5117 73.0784 54.6869 73.1318C54.862 73.1852 55.0223 73.2675 55.1586 73.374C55.2949 73.4805 55.4045 73.6092 55.4812 73.7527C55.558 73.8961 55.6003 74.0515 55.6057 74.2101C55.6112 74.3686 55.5797 74.5272 55.5131 74.6767C55.4465 74.8262 55.346 74.9637 55.2174 75.0814L55.1739 75.121C51.7636 78.1126 48.4531 80.1104 45.266 81.1596C47.0045 81.9667 49.4948 82.7802 52.2242 82.5096C55.15 82.2192 57.8159 80.7256 60.1406 78.0553C60.25 77.9233 60.3894 77.8109 60.5505 77.725C60.7115 77.6392 60.8908 77.5816 61.0775 77.5557C61.2642 77.5299 61.4543 77.5364 61.6364 77.5748C61.8185 77.6132 61.9887 77.6827 62.1366 77.7792C62.4391 77.9661 62.639 78.2487 62.6925 78.5648C62.7459 78.881 62.6485 79.2047 62.4217 79.4649C62.0244 79.919 61.6165 80.3484 61.1998 80.7473C60.1518 81.7554 58.9352 82.6283 57.5901 83.337C58.7879 84.1326 61.1735 85.0361 65.4507 84.1125C65.6348 84.0687 65.8266 84.0564 66.0149 84.0763C66.2031 84.0962 66.384 84.1479 66.5469 84.2283C66.6853 84.2967 66.8082 84.3846 66.9107 84.4883Z" fill="black"/>
<path fill-rule="evenodd" clip-rule="evenodd" d="M51.2632 50.6082L51.5828 50.6488C61.6976 51.9489 68.8554 57.2976 71.2199 65.3069C73.2091 72.0649 75.5593 78.7856 75.8765 79.6925C75.8987 79.7559 75.9109 79.7909 75.9124 79.7955C75.9745 79.9483 75.9993 80.1108 75.9853 80.2732C75.9712 80.4357 75.9187 80.5947 75.8307 80.7408C75.7428 80.8869 75.6213 81.017 75.4735 81.1234C75.3257 81.2298 75.1547 81.3103 74.9707 81.36C74.9518 81.3651 74.9328 81.3698 74.9137 81.3743C73.7448 82.762 72.6334 83.7123 71.3792 84.4184C70.0643 85.1586 68.6292 85.6085 66.8949 86.0397C66.8145 86.121 66.7219 86.1935 66.6194 86.2551C66.4628 86.3493 66.2861 86.4164 66.0999 86.4524C59.5344 87.8704 56.1896 85.7523 54.8358 84.4744C54.0688 84.69 53.2796 84.8401 52.4803 84.9223C47.1923 85.4375 42.8189 82.8847 41.4296 81.9648C40.5236 82.0488 39.6114 82.0454 38.7105 81.9548C33.2725 81.3379 30.1851 77.6855 29.2309 76.3655C28.7323 76.2785 28.2405 76.1671 27.7581 76.0321C18.956 73.4324 16.2223 66.2954 15.6262 64.3333C15.5282 64.2872 15.4303 64.2414 15.3324 64.1956C14.7068 63.903 14.0841 63.6117 13.4787 63.2655C6.20643 59.1214 6.83279 51.6188 7.2144 49.338C-3.72673 40.9415 2.60711 30.2478 2.67394 30.1388C2.79178 29.9467 2.96729 29.7836 3.1824 29.6663C3.39752 29.5491 3.64446 29.4819 3.8978 29.4717C4.15115 29.4615 4.40174 29.5086 4.62377 29.6083C4.84581 29.7079 5.03126 29.8564 5.16104 30.0386C16.661 46.1563 40.9086 49.276 51.2625 50.6081L51.2632 50.6082ZM66.9107 84.4883C68.4203 84.0989 69.5899 83.7044 70.6434 83.1113C71.5715 82.5887 72.4346 81.8972 73.3581 80.8762C73.2784 80.7708 73.2188 80.655 73.1818 80.5328C73.1544 80.4606 70.5959 73.2216 68.451 65.9454C66.3436 58.7915 60.1793 54.2041 51.0977 53.0409L50.7804 53.0001C40.4733 51.6749 16.9035 48.6441 4.25799 33.3332C3.1731 36.5107 2.38791 42.7359 9.68038 47.9579C19.2369 54.7984 28.2279 57.0696 44.0271 56.6364C44.4034 56.6282 44.7652 56.7464 45.0337 56.9651C45.3021 57.1839 45.4553 57.4854 45.46 57.8041C45.4647 58.1227 45.3205 58.4326 45.0588 58.6662C44.797 58.8998 44.439 59.0381 44.0627 59.051C28.598 59.4676 19.309 57.3955 9.89519 51.2325C9.79672 53.9333 10.4051 58.5662 15.1059 61.2485C22.7884 65.6377 31.5483 66.1265 42.6626 62.7825C42.8404 62.7292 43.0281 62.7059 43.215 62.7139C43.402 62.7219 43.5845 62.761 43.7521 62.8291C43.9197 62.8971 44.0692 62.9928 44.192 63.1106C44.3148 63.2283 44.4085 63.3659 44.4678 63.5155C44.5271 63.6651 44.5507 63.8236 44.5375 63.9822C44.5242 64.1408 44.4742 64.2962 44.3904 64.4397C44.3066 64.5831 44.1906 64.7117 44.049 64.8182C43.9075 64.9247 43.7431 65.0069 43.5653 65.0602C34.3143 67.8369 26.2993 68.0644 19.2512 65.7751C20.5261 68.3139 23.2715 72.1214 28.7359 73.7303C37.2193 76.229 47.6864 68.5559 47.7896 68.4776C48.0646 68.2732 48.4189 68.1635 48.7807 68.1709C49.1425 68.1782 49.4846 68.3019 49.7376 68.517C49.9906 68.7321 50.1356 69.0224 50.143 69.3289C50.1504 69.6355 50.0198 69.9353 49.7776 70.1676C49.7369 70.2064 49.694 70.2435 49.6488 70.2786L49.6429 70.283C49.1788 70.6221 41.4108 76.2994 33.077 76.6174C34.3701 77.8427 36.3839 79.2415 39.1603 79.5493C43.3065 80.0103 48.0109 77.96 53.1416 73.4589C53.2702 73.3412 53.4243 73.2457 53.5953 73.1777C53.7662 73.1098 53.9506 73.0707 54.1379 73.0629C54.3252 73.055 54.5117 73.0784 54.6869 73.1318C54.862 73.1852 55.0223 73.2675 55.1586 73.374C55.2949 73.4805 55.4045 73.6092 55.4812 73.7527C55.558 73.8961 55.6003 74.0515 55.6057 74.2101C55.6112 74.3686 55.5797 74.5272 55.5131 74.6767C55.4465 74.8262 55.346 74.9637 55.2174 75.0814L55.1739 75.121C51.7636 78.1126 48.4531 80.1104 45.266 81.1596C47.0045 81.9667 49.4948 82.7802 52.2242 82.5096C55.15 82.2192 57.8159 80.7256 60.1406 78.0553C60.25 77.9233 60.3894 77.8109 60.5505 77.725C60.7115 77.6392 60.8908 77.5816 61.0775 77.5557C61.2642 77.5299 61.4543 77.5364 61.6364 77.5748C61.8185 77.6132 61.9887 77.6827 62.1366 77.7792C62.4391 77.9661 62.639 78.2487 62.6925 78.5648C62.7459 78.881 62.6485 79.2047 62.4217 79.4649C62.0244 79.919 61.6165 80.3484 61.1998 80.7473C60.1518 81.7554 58.9352 82.6283 57.5901 83.337C58.7879 84.1326 61.1735 85.0361 65.4507 84.1125C65.6348 84.0687 65.8266 84.0564 66.0149 84.0763C66.2031 84.0962 66.384 84.1479 66.5469 84.2283C66.6853 84.2967 66.8082 84.3846 66.9107 84.4883Z" fill="black"/>
<path d="M453.585 8.69056L451.625 3.12218L446.116 9.58979L437.408 16.2812L424.391 23.3302L409.281 27.7289L398.717 32.3866L391.148 41.843L387.233 60.2113L395.931 64.1624L402.447 63.3779L406.076 60.0389L413.184 60.1506L418.701 56.4231L424.581 55.7152L429.309 50.7927L433.829 48.1526L439.472 42.7975L441.943 36.5344L446.265 33.5956L449.25 27.593L448.696 22.9841L450.004 19.1182L452.984 14.4062L453.585 8.69056Z" fill="#FEF9F5"/>
<path fill-rule="evenodd" clip-rule="evenodd" d="M405.656 27.932L405.344 28.0115C395.474 30.5383 389.03 36.7221 387.665 44.9603C386.519 51.9111 385.01 58.8689 384.807 59.8074C384.793 59.8729 384.785 59.9091 384.784 59.9139C384.741 60.0731 384.736 60.2374 384.77 60.3969C384.804 60.5564 384.875 60.7078 384.98 60.8421C385.085 60.9763 385.222 61.0906 385.381 61.1781C385.541 61.2657 385.72 61.3246 385.909 61.3514C385.928 61.3541 385.947 61.3565 385.966 61.3586C387.295 62.593 388.513 63.4002 389.843 63.9477C391.237 64.5218 392.716 64.7929 394.488 65.0088C394.578 65.0796 394.679 65.1402 394.788 65.1889C394.955 65.2632 395.138 65.3082 395.327 65.3212C402.01 65.9259 405.068 63.4147 406.254 61.9809C407.041 62.1011 407.842 62.1536 408.644 62.1375C413.95 62.0023 417.975 58.9341 419.24 57.8512C420.148 57.8238 421.052 57.7089 421.934 57.5088C427.251 56.2317 429.866 52.2292 430.651 50.8026C431.134 50.6552 431.608 50.4846 432.07 50.2916C440.48 46.6353 442.318 39.2177 442.669 37.1974C442.761 37.1397 442.852 37.0822 442.943 37.0248C443.528 36.6579 444.11 36.2926 444.668 35.8751C451.372 30.873 449.833 23.5033 449.176 21.2863C458.998 11.6151 451.411 1.77611 451.331 1.676C451.191 1.49975 450.997 1.35936 450.769 1.2693C450.542 1.17923 450.288 1.14274 450.036 1.16359C449.784 1.18443 449.541 1.26185 449.333 1.38789C449.125 1.51392 448.959 1.68401 448.853 1.88063C439.421 19.2833 415.76 25.344 405.657 27.9319L405.656 27.932ZM394.283 63.4709C392.739 63.269 391.531 63.0204 390.414 62.5606C389.43 62.1555 388.489 61.5746 387.449 60.674C387.515 60.5597 387.56 60.4375 387.581 60.3118C387.6 60.2368 389.252 52.7393 390.489 45.2555C391.704 37.8976 397.255 32.5911 406.117 30.3263L406.427 30.247C416.485 27.6717 439.484 21.7821 450.151 5.04015C451.615 8.06115 453.155 14.1437 446.562 20.2179C437.923 28.1755 429.286 31.5289 413.568 33.0304C413.194 33.0683 412.849 33.2298 412.61 33.4797C412.37 33.7297 412.255 34.0477 412.29 34.3645C412.324 34.6813 412.505 34.9713 412.793 35.1711C413.081 35.3709 413.453 35.4644 413.828 35.4312C429.212 33.954 438.169 30.7619 446.75 23.4943C447.178 26.1628 447.141 30.8353 442.808 34.0722C435.727 39.3676 427.101 40.9237 415.672 38.9635C415.489 38.9324 415.3 38.9322 415.116 38.963C414.931 38.9938 414.755 39.0549 414.597 39.143C414.44 39.231 414.303 39.3442 414.196 39.4761C414.088 39.608 414.012 39.7561 413.972 39.9118C413.931 40.0674 413.927 40.2277 413.96 40.3835C413.992 40.5392 414.061 40.6874 414.161 40.8195C414.262 40.9517 414.393 41.0651 414.546 41.1535C414.7 41.2419 414.873 41.3034 415.055 41.3346C424.568 42.9594 432.542 42.2054 439.251 39.0715C438.297 41.7471 436.041 45.8617 430.819 48.1266C422.713 51.6437 411.397 45.3078 411.285 45.2427C410.987 45.0735 410.622 45.008 410.264 45.0595C409.907 45.111 409.583 45.2756 409.358 45.52C409.133 45.7644 409.025 46.0702 409.055 46.3754C409.085 46.6805 409.252 46.9622 409.52 47.1631C409.565 47.1967 409.612 47.2282 409.661 47.2575L409.668 47.2611C410.169 47.541 418.566 52.226 426.868 51.5228C425.735 52.8969 423.91 54.5314 421.194 55.1764C417.14 56.1408 412.225 54.681 406.587 50.841C406.445 50.7399 406.281 50.6639 406.103 50.6174C405.925 50.5708 405.737 50.5546 405.551 50.5697C405.364 50.5847 405.182 50.6308 405.015 50.7052C404.848 50.7796 404.699 50.8809 404.577 51.0033C404.455 51.1257 404.362 51.2668 404.303 51.4185C404.245 51.5703 404.222 51.7297 404.236 51.8878C404.25 52.0458 404.3 52.1993 404.384 52.3395C404.469 52.4797 404.585 52.6039 404.727 52.705L404.775 52.739C408.522 55.2913 412.049 56.8694 415.337 57.5211C413.712 58.5346 411.342 59.6464 408.603 59.7116C405.667 59.781 402.841 58.6246 400.209 56.2585C400.085 56.1409 399.933 56.0464 399.762 55.9808C399.592 55.9153 399.407 55.8801 399.219 55.8772C399.031 55.8744 398.843 55.9041 398.667 55.9645C398.492 56.0249 398.331 56.1147 398.196 56.2285C397.919 56.451 397.756 56.7559 397.741 57.0762C397.727 57.3965 397.863 57.7059 398.12 57.9364C398.569 58.3385 399.026 58.7148 399.488 59.0598C400.65 59.9322 401.963 60.6498 403.384 61.1888C402.293 62.1249 400.039 63.3132 395.685 62.9194C395.497 62.8985 395.305 62.9097 395.121 62.9524C394.937 62.9952 394.764 63.0686 394.612 63.1684C394.483 63.2532 394.372 63.3555 394.283 63.4709Z" fill="black"/>
</svg>
